<svg width="84" height="56" viewBox="0 0 84 56" fill="none" xmlns="http://www.w3.org/2000/svg">
<path d="M1.78122 0.0153187L55.78 0.0133262C64.2256 0.0136998 72.8181 0.103743 81.2468 0C81.2182 0.219068 81.197 0.306122 81.2475 0.527556C81.4405 0.694442 81.4118 0.582043 81.7617 0.605395C81.9229 0.784983 81.8744 0.975344 81.9086 1.27281C82.256 1.47905 82.0412 1.29666 82.4042 1.3641C82.5 1.58634 82.4677 1.72122 82.4515 1.96389C82.637 1.95019 82.8344 1.9081 82.9844 1.99534C83.0684 2.51897 83.028 4.59563 83.0273 5.25134L83.0255 12.0823L83.0211 36.7469L83.0161 37.2269L83.658 37.2115L83.6592 46.8835C83.6611 47.3266 83.7221 49.9687 83.5889 50.1856C83.2901 50.2263 83.2017 50.1476 83.0385 50.2849C82.9993 50.9131 83.1375 52.8952 82.9439 53.257C82.6582 53.3205 82.599 53.2283 82.4565 53.3591C82.4565 53.5764 82.4527 53.7414 82.4365 53.96C82.2043 54.1275 82.1141 53.9058 81.9447 54.1132C81.9404 54.3511 81.9821 54.3779 81.8532 54.5317C81.5992 54.5485 81.4174 54.485 81.2593 54.5815C81.2456 54.8013 81.2861 55.0261 81.1833 55.1537C80.2532 55.2615 77.8552 55.1836 76.7838 55.1818L68.0145 55.1824L68.0226 55.9913L15.2493 56C15.2428 55.7403 15.2286 55.4427 15.2367 55.1861C14.0041 55.1799 2.42401 55.2148 2.28325 55.1382C2.23998 54.8692 2.24652 54.7745 2.25685 54.5055C2.11155 54.5173 1.96612 54.5285 1.82063 54.5385C1.52529 54.3554 1.88002 54.3629 1.55343 54.0746C1.18911 54.0173 1.20162 54.0067 1.12517 53.6717C1.14242 53.4357 1.16744 53.3236 1.09716 53.0963C0.911387 52.9438 0.948927 52.9911 0.655953 52.9849C0.504735 52.803 0.552235 50.1816 0.544951 49.7281L0.0131658 49.7025L0.0139124 40.6593C0.0132276 40.0512 -0.0322806 37.316 0.0451028 36.8094C0.197753 36.7078 0.236228 36.7434 0.444846 36.7452C0.722692 36.5488 0.489731 5.61245 0.559893 2.40526C0.56531 2.15755 0.491226 1.60708 0.63211 1.38988C0.888166 1.41205 0.964178 1.42936 1.15113 1.24933L1.14852 0.778258C1.27153 0.610314 1.20641 0.663431 1.41397 0.592754C1.55137 0.635533 1.62016 0.674826 1.75507 0.629556C1.85493 0.41877 1.80961 0.245346 1.78122 0.0153187Z" fill="#DD3430"/>
<path d="M83.0169 37.2263L83.6588 37.2109L83.66 46.883C83.6619 47.3261 83.7229 49.9682 83.5897 50.1851C83.2909 50.2257 83.2025 50.1471 83.0393 50.2844C83.0001 50.9125 83.1383 52.8947 82.9447 53.2564C82.659 53.32 82.5998 53.2278 82.4573 53.3586C82.4573 53.5759 82.4535 53.7409 82.4373 53.9595C82.2051 54.127 82.1149 53.9053 81.9455 54.1127C81.9412 54.3505 81.9829 54.3773 81.854 54.5311C81.6 54.5479 81.4182 54.4844 81.2601 54.5809C81.2464 54.8008 81.2869 55.0256 81.1841 55.1532C80.254 55.2609 77.856 55.1831 76.7845 55.1812L68.0153 55.1818L68.0233 55.9908L15.2501 55.9995C15.2436 55.7398 15.2294 55.4421 15.2375 55.1856C14.0049 55.1794 2.42479 55.2142 2.28403 55.1376C2.24076 54.8686 2.2473 54.774 2.25763 54.505L2.30071 54.4464C2.54544 54.523 4.23885 54.4844 4.62409 54.4801C8.02914 54.4383 11.4487 54.5268 14.852 54.4695C14.8328 53.9539 14.7383 53.7583 15.1696 53.5504C15.4394 53.4202 15.1427 52.1655 15.3528 51.8977L15.6189 51.879C15.9169 51.6524 15.5156 50.5857 15.7731 50.1899L16.0521 50.176C16.341 49.9503 16.0983 49.0757 16.1649 48.6999C16.2037 48.4812 16.5316 48.6693 16.5689 48.4834C16.5977 48.3401 16.5497 47.4855 16.559 47.435C16.659 46.8921 16.9481 47.6402 16.8351 46.4456C16.8166 46.2496 16.7882 45.7907 16.9238 45.6401L17.1994 45.6292C17.4908 45.3226 17.0956 44.2212 17.3861 43.8807C17.8761 43.8743 17.7568 43.6669 17.7656 43.2633C17.7729 42.9272 17.7105 42.6201 17.7811 42.2847C17.9262 42.2376 17.9649 42.2173 18.1 42.1446C18.2488 41.9415 18.2063 41.7322 18.1995 41.4664L65.0793 41.4765C65.0843 41.66 65.0749 42.144 65.2075 42.1634C65.8363 42.2554 65.337 43.3578 65.5512 43.7908C65.596 43.881 65.85 43.8353 65.8917 43.8756C66.2584 44.2309 65.7878 45.1882 66.0866 45.6276C66.8299 45.6513 66.2422 46.5471 66.4875 47.1778L66.7247 47.2328C66.861 47.4899 66.6481 48.2447 66.8237 48.5649C66.8679 48.5671 67.0148 48.5772 67.0422 48.5837C67.4251 48.6745 66.9675 49.7617 67.2396 50.1724C68.0016 50.1799 67.2844 51.3902 67.638 51.8622C67.7893 51.8697 67.8316 51.8647 67.976 51.9226C68.113 52.3797 67.9399 52.9588 68.0464 53.4968C68.1877 53.5547 68.2176 53.5846 68.3346 53.6749C68.4697 53.8848 68.4156 54.2148 68.4 54.4776C72.3451 54.5697 76.3568 54.4222 80.3076 54.4695C81.1132 54.4794 80.8654 53.6077 81.7432 53.5846C81.8789 53.4377 81.8247 53.2832 81.8303 53.0204C81.971 52.8797 82.0756 52.9476 82.3589 52.8984C82.5419 52.587 82.4012 50.3909 82.4523 49.7675C82.588 49.6593 82.6994 49.6958 82.9074 49.6912C82.9354 49.6616 82.9634 49.632 82.992 49.6024C83.0456 46.4797 82.9721 40.0325 83.0169 37.2263Z" fill="#932427"/>
<path d="M18.6037 42.2227L64.6321 42.2275C64.6041 43.4148 64.9882 43.0226 65.0436 43.3041C65.1258 43.7203 64.9036 44.3054 65.1165 44.681C65.1594 44.6856 65.4103 44.7163 65.4215 44.746C65.5548 45.105 65.3088 46.0774 65.5099 46.357C65.5498 46.3615 65.589 46.3659 65.6282 46.3704C66.0908 46.3376 65.6071 47.3879 65.8866 47.7692L66.107 47.773C66.4307 47.9694 66.0453 48.9958 66.3012 49.3104C67.0514 49.3315 66.4151 50.3855 66.6928 50.8902C66.7214 50.893 66.8665 50.9101 66.8814 50.9112C67.367 50.9468 66.8354 52.419 67.1361 52.8076L67.3751 52.8331C67.5021 52.9894 67.4934 54.6247 67.692 54.9329C67.7094 54.9603 67.7026 55.5052 67.7007 55.5861L64.611 55.6042L15.6095 55.6023C15.6037 55.3675 15.7872 52.9415 15.8591 52.845L16.0881 52.8244C16.444 52.584 15.9839 51.3716 16.2758 50.9374C16.3 50.9352 16.4236 50.9204 16.4361 50.921C16.9338 50.9471 16.4209 49.7146 16.7079 49.3297C17.4813 49.2953 16.8699 48.4191 17.1267 47.7974C17.8018 47.7059 17.1506 46.8115 17.4802 46.3809C18.2355 46.3016 17.5445 45.2794 17.8663 44.7269C17.9328 44.7209 18.1186 44.7078 18.1422 44.6718C18.3636 44.3341 18.0994 43.6587 18.2613 43.2063C18.4159 43.1641 18.4107 43.1702 18.5326 43.0691C18.6618 42.8311 18.6156 42.5029 18.6037 42.2227Z" fill="#DD3430"/>
<path d="M22.4497 49.2881L23.7686 49.2584C23.9666 49.2555 24.4847 49.2585 24.4825 49.371C24.4712 49.9345 24.7165 49.5588 24.9557 49.7913C24.96 49.9431 24.9429 50.0671 25.0257 50.1879C25.1476 50.198 25.2692 50.2118 25.3902 50.2293C25.4749 50.602 25.424 51.6687 25.4223 52.1065C25.4211 52.4097 25.2206 52.1731 24.987 52.3649C24.9826 52.5013 24.9751 52.6376 24.9647 52.774C24.8013 52.9135 24.8689 52.873 24.5895 52.8593C24.4633 53.0505 24.5038 53.0113 24.4867 53.2741C24.0983 53.279 22.7095 53.3662 22.4637 53.1987L22.4414 52.9272C22.3074 52.8151 22.2727 52.8543 22.0601 52.8568C21.9378 52.6987 21.9836 52.6376 21.9893 52.3973C21.8589 52.1843 21.8944 52.3394 21.5432 52.2348C21.4634 51.9004 21.4946 50.6749 21.5211 50.2929C21.7209 50.0935 21.6663 50.3205 21.9594 50.1486L22.0064 49.7675C22.1479 49.6368 22.0882 49.6754 22.3423 49.6809C22.466 49.55 22.4312 49.502 22.4497 49.2881Z" fill="#F0EFE7"/>
<path d="M58.7425 49.2788C59.1602 49.2689 60.2733 49.1932 60.6699 49.3365C60.7309 49.3584 60.7197 49.5214 60.7266 49.6122C60.861 49.7474 60.8423 49.701 61.1051 49.7068C61.2819 49.921 61.0802 49.909 61.2551 50.2C61.4257 50.2019 61.4562 50.1975 61.618 50.2443C61.684 50.4652 61.7052 52.0788 61.5981 52.2482L61.2657 52.28C61.0459 52.4861 61.303 52.6007 61.1088 52.8367C60.9606 52.8398 60.8598 52.8217 60.7483 52.9126C60.7378 53.0938 60.744 53.1119 60.6562 53.2651C60.2117 53.2769 59.2449 53.3379 58.8085 53.234C58.6976 53.2072 58.786 52.889 58.679 52.8628C58.4829 52.8142 58.4075 52.8996 58.2432 52.7532L58.2357 52.3647L58.1498 52.2862C57.9823 52.2937 57.9475 52.3049 57.7949 52.2476C57.7215 52.0826 57.7165 50.3884 57.8329 50.2145C57.9867 50.2106 58.1031 50.2286 58.2226 50.1413L58.2662 49.7682C58.4156 49.6301 58.3602 49.6729 58.6329 49.6789C58.758 49.5425 58.7232 49.4962 58.7425 49.2788Z" fill="#F0EFE7"/>
<path d="M40.8457 45.3086C41.2989 45.2631 42.0665 45.2466 42.5141 45.3187L42.5029 45.5655C42.6044 45.67 42.6262 45.6919 42.7426 45.7771L42.7364 45.9731L42.7333 46.0602C42.8242 46.0701 43.0321 46.0673 43.08 46.1392C43.2668 46.421 43.2674 47.4739 43.0427 47.7047L42.7949 47.7826L42.7855 47.9234C42.6262 48.0474 42.7133 48.0093 42.5141 48.0418L42.4618 48.3086C42.1761 48.5583 41.3207 48.5549 40.9727 48.3676C40.9017 48.3294 40.9011 48.1485 40.8874 48.0573L40.6689 48.0182C40.5107 47.8881 40.5599 47.9698 40.5257 47.7597C40.4142 47.7276 40.2692 47.712 40.2237 47.6334C40.0474 47.3304 40.1155 46.4637 40.1629 46.1401L40.2885 46.0712L40.4535 46.0138C40.5412 45.8239 40.6819 45.6571 40.8426 45.5248L40.8457 45.3086Z" fill="#DD3430"/>
<path d="M40.8457 45.3086C41.2989 45.2631 42.0665 45.2466 42.5141 45.3187L42.5029 45.5655C42.6044 45.67 42.6262 45.6919 42.7426 45.7771L42.7364 45.9731C42.526 46.0581 42.6156 46.0568 42.4021 45.9781C41.9644 45.952 41.2952 45.8475 40.9465 46.0954L40.7996 46.3994L40.6521 46.4375C40.5512 46.7305 40.578 46.886 40.6888 47.1697C40.7679 47.1952 40.8525 47.2246 40.9316 47.2469C40.9297 47.5371 40.8837 47.4791 41.0312 47.641C41.5361 47.7708 41.8916 47.6236 42.4126 47.6775L42.6698 47.598L42.7619 47.3638L42.7949 47.7826L42.7855 47.9234C42.6262 48.0474 42.7133 48.0093 42.5141 48.0418L42.4618 48.3086C42.1761 48.5583 41.3207 48.5549 40.9727 48.3676C40.9017 48.3294 40.9011 48.1485 40.8874 48.0573L40.6689 48.0182C40.5107 47.8881 40.5599 47.9698 40.5257 47.7597C40.4142 47.7276 40.2692 47.712 40.2237 47.6334C40.0474 47.3304 40.1155 46.4637 40.1629 46.1401L40.2885 46.0712L40.4535 46.0138C40.5412 45.8239 40.6819 45.6571 40.8426 45.5248L40.8457 45.3086Z" fill="#932427"/>
<path d="M40.2885 46.0703L40.5033 46.1085C40.6203 46.3786 40.5786 47.4377 40.5257 47.7588C40.4142 47.7267 40.2692 47.7111 40.2237 47.6325C40.0474 47.3295 40.1155 46.4628 40.1629 46.1392L40.2885 46.0703Z" fill="#1E1C1D"/>
<path d="M40.8906 48.0566C41.1982 48.0301 42.226 48.0057 42.5174 48.0411L42.4651 48.308C42.1793 48.5576 41.3239 48.5542 40.9759 48.3669C40.9049 48.3287 40.9043 48.1478 40.8906 48.0566Z" fill="#1E1C1D"/>
<path d="M40.8516 45.3086C41.3048 45.2631 42.0724 45.2466 42.52 45.3187C42.4802 45.4459 42.4739 45.58 42.3494 45.6181C41.9367 45.7447 41.4206 45.7457 41.0072 45.6187C40.8914 45.5832 40.8864 45.4354 40.8516 45.3086Z" fill="#1E1C1D"/>
<path d="M42.7344 46.0586C42.8253 46.0684 43.0332 46.0657 43.0811 46.1376C43.2679 46.4194 43.2685 47.4723 43.0438 47.7031L42.796 47.7809L42.763 47.3622C42.7954 46.9351 42.758 46.4878 42.7344 46.0586Z" fill="#1E1C1D"/>
<path d="M42.7406 45.9727L42.7374 46.0598C42.7611 46.4891 42.7985 46.9364 42.7661 47.3634L42.6739 47.5975L42.4168 47.6771C42.4679 47.0087 42.448 46.6404 42.4062 45.9777C42.6198 46.0563 42.5301 46.0577 42.7406 45.9727Z" fill="#DD3430"/>
<path d="M29.8395 48.5859C30.4284 48.5876 31.0815 48.5422 31.6617 48.5989C31.9111 48.6233 31.715 48.892 31.8727 49.1087C32.0141 49.1182 32.131 49.1292 32.2713 49.148C32.3834 49.3752 32.3098 50.4565 32.2883 50.757C32.1745 50.9302 32.1662 50.8849 31.9161 50.9436C31.785 51.1439 31.8271 51.199 31.8165 51.4692C31.2969 51.4654 30.7604 51.5047 30.2398 51.4935C29.5653 51.4785 30.0143 51.1763 29.7536 50.8824C29.5695 50.8838 29.5201 50.8936 29.3479 50.8393C29.2748 50.5185 29.2417 49.3579 29.4196 49.1097C29.5234 49.0955 29.5728 49.0885 29.6784 49.0893L29.757 49.0902C29.8715 48.9399 29.848 48.8533 29.842 48.6585L29.8395 48.5859Z" fill="#F0EFE7"/>
<path d="M51.3223 48.5883C51.7893 48.597 52.3078 48.5608 52.7741 48.5672C53.5635 48.5779 53.0674 48.8448 53.3419 49.1359C53.5237 49.1284 53.6046 49.1087 53.7665 49.1769C53.8431 49.4818 53.8605 50.6324 53.7024 50.8847C53.5816 50.9056 53.4758 50.9193 53.3544 50.9335C53.2155 51.1485 53.2622 51.1647 53.2548 51.464C52.7804 51.4753 52.2742 51.4983 51.7998 51.497C51.008 51.4939 51.5185 51.1783 51.2339 50.8805C51.0534 50.8856 51.0229 50.8905 50.8505 50.8496C50.7851 50.5202 50.749 49.3702 50.9277 49.1163C51.0322 49.1075 51.1368 49.0969 51.2408 49.0844C51.3491 48.9443 51.3255 48.8483 51.3236 48.6629L51.3223 48.5883Z" fill="#F0EFE7"/>
<path d="M82.449 1.96364C82.6345 1.94994 82.8318 1.90784 82.9819 1.99509C83.0659 2.51872 83.0254 4.59538 83.0248 5.25109L83.023 12.082L83.0186 36.7467C82.8144 36.7472 82.617 36.7714 82.4595 36.6746C82.3749 36.0032 82.4346 33.7684 82.4346 32.9957L82.4353 25.1884L82.4346 10.4673C82.4328 7.68338 82.3811 4.7363 82.449 1.96364Z" fill="#932427"/>
<path d="M1.125 53.6723C1.42999 53.643 1.54068 53.5776 1.77022 53.7028C1.82737 53.8753 1.82618 53.8958 1.83452 54.0795L2.17736 54.0988C2.31059 54.2532 2.26888 54.2084 2.29976 54.4475L2.25668 54.5061C2.11137 54.5179 1.96595 54.5291 1.82046 54.5391C1.52512 54.356 1.87985 54.3635 1.55325 54.0752C1.18894 54.0179 1.20145 54.0073 1.125 53.6723Z" fill="#932427"/>
<path d="M7.21491 3.96875C10.1533 4.03357 13.2876 3.9822 16.2373 3.98208L33.0513 3.98095L75.9037 3.969L75.9099 4.68312L76.9079 4.6739C76.9085 5.05736 76.8861 5.46655 76.8718 5.85175C77.1488 5.86464 77.3188 5.81289 77.5142 5.95587C77.5933 6.23347 77.5597 8.0829 77.5591 8.52895L77.5585 14.2327L77.5597 28.7405C77.5578 30.9635 77.5591 33.2024 77.5634 35.425C77.5653 36.1049 77.2883 35.8985 77.0293 36.0764C76.8282 36.2151 76.8905 36.9481 76.8967 37.2303C76.6109 37.2363 76.3034 37.1673 76.0488 37.2651C75.8738 37.4625 75.9261 37.4763 75.8913 37.7951L27.1847 37.7883C20.7522 37.7898 14.3198 37.7866 7.88715 37.789C6.71177 37.7895 7.68724 37.5488 6.85887 37.2306C6.83235 37.2204 6.32796 37.2313 6.25855 37.2332C6.26116 36.9165 6.32534 36.3442 6.19181 36.1016C5.96115 35.946 5.91477 35.9992 5.58594 35.9893L5.59023 5.86196C5.92149 5.85393 5.9596 5.90667 6.19766 5.75355C6.32952 5.50503 6.2601 4.98395 6.25363 4.66139L7.21342 4.66929L7.21491 3.96875Z" fill="#932427"/>
<path d="M7.80718 4.72456C9.38946 4.68246 11.1292 4.71534 12.7214 4.71546L21.9428 4.71746L49.2787 4.71584H66.709L72.2522 4.71559C73.1954 4.7154 74.4735 4.67461 75.3799 4.74411C75.4932 4.88372 75.4503 5.01536 75.4521 5.23679C75.6308 5.49005 76.1102 5.39154 76.376 5.61422C76.3941 5.8245 76.3779 5.94381 76.3579 6.14968C76.4818 6.29957 76.5186 6.23312 76.7987 6.26307C76.9407 6.5017 76.8915 8.15703 76.8896 8.58247V12.5409L76.8859 29.4841C76.8859 30.088 76.9668 35.3957 76.8049 35.6102L76.4432 35.6334C76.2695 35.8547 76.4825 35.9861 76.3175 36.2536C76.1581 36.2601 76.0485 36.245 75.919 36.3339L75.8861 36.6728C75.6937 36.8197 75.7883 36.7837 75.4994 36.774C75.3874 36.9281 75.4123 36.9895 75.3868 37.1954C72.4888 37.2819 69.1457 37.2076 66.2128 37.2068L48.5777 37.2042L21.5943 37.2045C17.2363 37.2051 12.8737 37.1918 8.51608 37.2168C8.31344 37.218 7.97583 37.2145 7.82299 37.1008L7.80898 36.8277C7.57802 36.6327 7.55367 36.8617 7.25149 36.6867L7.23661 36.3657C7.11347 36.2525 7.05931 36.2868 6.85785 36.2753C6.66006 36.0436 6.9046 35.949 6.71453 35.6251C6.54128 35.6164 6.5109 35.6185 6.34779 35.5669C6.2483 35.109 6.30533 33.7423 6.30533 33.1996L6.30651 28.1976L6.30608 10.9718C6.30608 10.4513 6.25484 6.46047 6.38881 6.27248L6.72605 6.24956C6.85859 6.09607 6.7898 5.8892 6.78899 5.61278C7.11285 5.16991 7.29992 5.56963 7.70184 5.3061C7.85661 5.07533 7.80276 5.0549 7.80718 4.72456Z" fill="#F0EFE7"/>
<path d="M18.5118 15.1265C18.5113 14.9096 18.4793 14.7193 18.6029 14.5574C19.7605 14.4689 21.6664 14.536 22.9036 14.5374L30.9493 14.5371L56.6863 14.5331C57.4159 14.5327 64.33 14.4878 64.4838 14.5975C64.5454 14.8185 64.5299 14.9026 64.5212 15.1282L64.7851 15.1177C65.0472 15.143 65.0005 15.0978 65.1618 15.2405C65.2004 15.4602 65.1929 15.5548 65.1892 15.7734C65.4581 15.766 65.5179 15.7193 65.7227 15.8377C65.7924 16.055 65.7731 16.158 65.7638 16.3837L66.3191 16.4282L66.3234 23.6047C66.3253 24.3644 66.3801 26.4587 66.2967 27.1402C65.9947 27.3691 65.5845 27.0137 65.7588 27.7815C65.6032 27.9461 65.5147 27.9224 65.2639 27.9302L65.2109 27.9316L65.1773 28.0181C65.1636 28.2483 65.201 28.3567 65.0771 28.5022C64.8841 28.5213 64.7857 28.5305 64.5984 28.5799C64.378 28.924 64.6494 28.9637 64.4247 29.1499C62.4356 29.2214 60.2623 29.176 58.2576 29.1752L47.5018 29.1711L18.5497 29.1646C18.5239 28.9953 18.5221 28.713 18.515 28.5328C18.2586 28.5346 18.076 28.5845 17.8748 28.4689C17.9041 28.1094 17.6876 27.6868 17.3194 27.8815C17.1945 27.6985 17.2167 27.4795 17.1708 27.2227C16.9655 27.2323 16.7639 27.2613 16.6221 27.137C16.5554 26.0283 16.6011 24.4774 16.6026 23.341L16.6103 16.4271C16.7997 16.4129 16.9268 16.4017 17.1131 16.3668C17.2698 16.1704 17.2219 16.0574 17.2395 15.7603C17.4231 15.7658 17.5005 15.7614 17.6828 15.7384C17.8334 15.5755 17.8041 15.4976 17.8513 15.2481C17.9891 15.088 18.0049 15.1356 18.2696 15.1126L18.5118 15.1265Z" fill="#DD3430"/>
<path d="M18.5547 29.1652C18.5645 28.9249 18.5731 28.8009 18.6126 28.5601C19.697 28.4773 21.6197 28.5314 22.7633 28.5313L30.5478 28.5319L52.8065 28.5326L59.8651 28.5334C61.3555 28.5352 62.9517 28.5656 64.4346 28.5094C64.5149 28.2899 64.5853 28.0238 64.7614 27.903C65.0329 27.9114 65.0179 27.8639 65.1823 28.0188C65.1686 28.249 65.2059 28.3574 65.0821 28.5029C64.8891 28.522 64.7907 28.5311 64.6033 28.5806C64.3829 28.9247 64.6544 28.9643 64.4296 29.1506C62.4406 29.2221 60.2672 29.1767 58.2626 29.1759L47.5067 29.1718L18.5547 29.1652Z" fill="#932427"/>
<path d="M18.5119 15.1265C18.5114 14.9096 18.4793 14.7193 18.603 14.5574C19.7606 14.4689 21.6665 14.536 22.9037 14.5374L30.9494 14.5371L56.6864 14.5331C57.416 14.5327 64.3301 14.4878 64.4839 14.5975C64.5455 14.8185 64.53 14.9026 64.5213 15.1282C62.0385 15.2188 58.9998 15.1389 56.4716 15.1384L40.8007 15.1377L26.005 15.1367C23.6996 15.1361 20.761 15.2216 18.5119 15.1265Z" fill="#932427"/>
<path d="M16.6103 16.4258C16.7877 16.4349 17.1396 16.4186 17.2451 16.5108L17.2437 23.5013C17.2435 24.4513 17.2945 26.3215 17.2059 27.2136C17.4525 27.2102 17.5857 27.1814 17.7918 27.3101C17.8176 27.445 17.7932 27.4916 17.7565 27.6222C17.8035 27.8013 17.8155 27.8039 17.9676 27.9236C18.1707 27.9776 18.2053 27.9546 18.4184 27.9039C18.5944 28.0813 18.5365 28.2952 18.515 28.5315C18.2586 28.5332 18.076 28.5832 17.8748 28.4675C17.9041 28.1081 17.6876 27.6855 17.3194 27.8801C17.1945 27.6971 17.2167 27.4782 17.1708 27.2214C16.9655 27.231 16.7639 27.26 16.6221 27.1357C16.5554 26.027 16.6011 24.4761 16.6026 23.3396L16.6103 16.4258Z" fill="#932427"/>
<path d="M66.3186 16.4297L66.323 23.6062C66.3248 24.3659 66.3796 26.4602 66.2962 27.1417C65.9943 27.3706 65.584 27.0153 65.7583 27.783C65.6027 27.9476 65.5143 27.9239 65.2634 27.9317L65.2105 27.9331C65.1638 27.6845 65.142 27.6034 65.1663 27.3431C65.3356 27.11 65.3991 27.3339 65.7334 27.1731C65.8063 26.7408 65.7664 24.9854 65.7658 24.4375L65.7571 18.5373C65.7565 18.1337 65.7222 16.7506 65.8087 16.4636L66.3186 16.4297Z" fill="#932427"/>
<path d="M64.7884 15.1172C65.0505 15.1424 65.0038 15.0973 65.1651 15.2399C65.2037 15.4597 65.1962 15.5543 65.1925 15.7728C65.4614 15.7654 65.5212 15.7187 65.726 15.8371C65.7957 16.0545 65.7764 16.1574 65.7671 16.3831C65.5436 16.3878 65.4695 16.3983 65.2479 16.3429C65.1115 16.1381 65.1607 16.0615 65.1595 15.7768C64.9086 15.7788 64.6782 15.8308 64.5469 15.5927C64.5923 15.373 64.662 15.3006 64.7884 15.1172Z" fill="#932427"/>
<path d="M17.2422 15.761C17.4258 15.7665 17.5032 15.7621 17.6855 15.7391C17.836 15.5762 17.8068 15.4983 17.854 15.2488C17.9918 15.0887 18.0076 15.1363 18.2723 15.1133C18.2596 15.3759 18.2649 15.4308 18.4051 15.659L18.3779 15.7312C18.0641 15.7691 18.0602 15.7184 17.8577 15.8905C17.7746 16.1707 17.8088 16.2377 17.6134 16.389C17.479 16.388 17.4072 16.4004 17.2889 16.3358L17.2422 15.761Z" fill="#932427"/>
<path d="M40.7171 17.0101C41.8445 17.0094 50.8392 16.9712 50.9587 17.048C51.0869 17.5428 51.2146 17.4055 51.4885 17.6215C51.5476 18.0492 51.5028 20.0927 51.5034 20.6248L51.509 24.1505C51.5103 24.6701 51.5445 25.584 51.4654 26.0614C51.1897 26.2294 51.2233 26.0147 51.0496 26.2118L51.0297 26.512C50.719 26.7357 44.4368 26.5247 43.5634 26.5987C43.2129 26.6285 41.2058 26.612 40.8353 26.5742C40.6915 26.4706 40.7326 26.5382 40.7046 26.3677C40.6872 25.8987 40.539 25.2231 41.0582 25.0583C41.2431 24.8538 41.1634 19.1478 41.1447 18.5063C41.0016 18.3916 40.9144 18.4189 40.7071 18.3979L40.7171 17.0101Z" fill="#F0EFE7"/>
<path d="M40.7034 26.3648L40.6636 26.5232C40.5328 26.5855 40.4525 26.5986 40.3062 26.597C37.9794 26.5715 35.6463 26.631 33.3223 26.5807C33.0629 26.5751 33.2403 26.3577 33.0854 26.139L32.7589 26.1105C32.751 26.0994 32.7154 26.0548 32.716 26.0289C32.7404 25.1304 32.5444 17.7914 32.7545 17.474C32.9177 17.4711 33.0225 17.4916 33.1442 17.3898C33.1444 17.2422 33.1236 17.1407 33.2124 17.0295C34.0102 16.9686 35.1349 17.0005 35.9559 17.0009L40.6885 17.0056C40.6835 17.4865 40.6791 17.9139 40.7059 18.395C40.9132 18.4161 41.0004 18.3888 41.1436 18.5034C41.1622 19.145 41.2419 24.8509 41.057 25.0554C40.5378 25.2202 40.686 25.8958 40.7034 26.3648Z" fill="#1E1C1D"/>
<path d="M22.8567 17.7194L22.7844 17.5086C22.6694 17.4646 22.556 17.4168 22.4442 17.3652C22.3823 17.1847 22.396 17.2531 22.4358 17.0501C22.5872 16.9633 22.9003 16.9994 23.0917 17.0044C23.3197 16.7953 23.074 16.841 23.2626 16.5382C23.6353 16.471 25.5011 16.4452 25.8149 16.557C25.8482 16.7094 25.8585 16.7869 25.8733 16.9424C26.0287 17.058 26.1806 17.0269 26.3846 17.0243C26.5136 17.1677 26.4686 17.1394 26.4576 17.4063C26.5959 17.5 26.6182 17.5257 26.777 17.5628C27.1937 17.1181 27.4808 17.5338 27.6443 17.9092C28.5897 17.9584 27.937 18.2355 28.3581 18.6702L28.777 18.7093C28.9556 19.0445 28.7246 19.3507 28.8751 19.6668C28.9956 19.6799 29.1157 19.696 29.2354 19.7154C29.3439 19.9491 29.2986 20.8008 29.2959 21.1228L27.5134 21.1215L27.5261 21.9611C28.0921 21.9571 28.7345 21.9385 29.294 21.961C29.2999 22.281 29.3524 23.2274 29.2387 23.4791C28.9336 23.5488 28.9478 23.4486 28.8285 23.6245C28.8247 23.9129 28.8872 24.231 28.7836 24.4447C28.3817 24.5161 28.4307 24.3893 28.2236 24.6019C28.1698 24.8649 28.2211 25.0844 28.1358 25.2414C27.6316 25.3147 27.6585 25.1523 27.4428 25.6685C27.2735 25.7694 26.9657 25.7382 26.7899 25.6671C26.5746 25.6492 26.4869 25.629 26.2834 25.7083L26.4047 25.7461C26.737 26.2621 26.1158 26.1042 25.905 26.2374C25.8885 26.2478 25.965 26.3928 25.7999 26.5685C25.4876 26.6199 23.1942 26.6394 23.0283 26.5355C23.0223 26.3897 23.033 26.3264 22.9569 26.201C22.7469 26.1778 22.6799 26.1672 22.4785 26.1047C22.176 25.6419 23.8799 25.0966 23.1345 24.3001C22.6519 24.1266 22.7043 24.6719 22.0566 24.7912C21.9454 24.9743 21.9831 25.4567 21.985 25.7007C21.6854 25.7063 21.5603 25.7373 21.3488 25.5807C21.222 25.1241 21.1013 25.3356 20.683 25.2245C20.5916 25.0193 20.6995 24.8747 20.6536 24.5541C20.4464 24.4148 20.415 24.5116 20.166 24.4652C19.8296 24.4024 20.1404 23.8423 19.9527 23.5241C19.7962 23.5191 19.6847 23.5376 19.5674 23.4422C19.4806 23.1307 19.525 22.3359 19.5331 21.9722C20.0978 21.952 20.6754 21.9634 21.2417 21.9679L21.2502 21.1232L19.527 21.1236C19.5201 20.7833 19.4551 19.942 19.6119 19.6947C19.7571 19.6877 19.8273 19.681 19.9708 19.6588C20.0631 19.4894 19.9886 19.04 20.0107 18.8397C20.0086 18.6432 20.467 18.772 20.5077 18.5966C20.7511 17.5485 20.9368 18.0927 21.2806 17.831C21.3255 17.6464 21.3231 17.5862 21.4467 17.4527C21.6404 17.3921 21.7274 17.4299 21.9255 17.472C22.1129 17.6858 21.8919 17.7274 22.0357 18.1312C22.2356 18.2944 22.2419 18.2409 22.5594 18.2553L22.5377 18.1641C22.5702 17.9815 22.7215 17.8618 22.8567 17.7194Z" fill="#F0EFE7"/>
<path d="M25.5799 24.2915C25.795 24.285 26.0086 24.2598 26.2091 24.3249C26.2478 24.6555 26.4077 24.8237 26.7426 24.8614C26.846 25.0265 26.7996 25.4454 26.7924 25.6639C26.5771 25.6459 26.4893 25.6257 26.2859 25.705C26.1379 25.7218 26.1463 25.7283 26.0124 25.6666L25.9878 25.4182C25.8657 25.266 25.8316 25.2241 25.642 25.1724C25.5375 25.0155 25.5772 24.5134 25.5799 24.2915Z" fill="#DD3430"/>
<path d="M25.5915 18.8154C25.5799 18.5357 25.548 18.1458 25.5959 17.8824C25.8584 17.8068 26.0265 17.7053 26.1438 17.4506L26.4566 17.4062C26.5949 17.5 26.6172 17.5257 26.776 17.5628C26.7934 17.7705 26.8297 17.9489 26.7597 18.1402C26.3853 18.1968 26.2521 18.3826 26.2214 18.753C26.0667 18.8572 25.7964 18.8194 25.5915 18.8154Z" fill="#DD3430"/>
<path d="M22.8581 17.7188C22.9638 17.7418 23.1327 17.7447 23.1777 17.8356C23.3348 18.1535 23.3493 18.6455 23.0227 18.86C22.803 18.8532 22.879 18.8633 22.6722 18.7156C22.5425 18.4849 22.6178 18.456 22.5607 18.2547L22.5391 18.1635C22.5716 17.9809 22.7229 17.8612 22.8581 17.7188Z" fill="#DD3430"/>
<path d="M54.1656 21.1237C54.1718 20.7725 54.1158 20.0639 54.2216 19.7317C54.2391 19.6771 54.4806 19.671 54.5815 19.6554C54.8037 19.1497 54.2839 18.7898 54.9967 18.594C55.3173 18.5058 55.2594 18.2701 55.2669 17.9728C55.4711 17.8208 55.5234 17.9485 55.8178 17.846C55.8857 17.6414 55.8876 17.5857 56.0351 17.4404C56.2331 17.3781 56.2779 17.4072 56.4896 17.4594C56.6085 17.6285 56.5624 17.8927 56.5599 18.1356L56.6334 18.2091C56.6988 18.2073 56.7648 18.2062 56.8301 18.2058C57.3437 18.2047 56.9521 18.4917 57.3493 18.8884C57.5367 18.927 57.6077 18.8675 57.787 18.7795C57.8393 18.6856 57.8306 18.7062 57.8467 18.6046C58.0086 17.6017 57.373 17.7993 56.8438 17.1542L56.9241 17.0243C56.959 17.0163 57.5349 17.0011 57.6233 16.9969C57.8025 16.7963 57.5952 16.7353 57.777 16.5276C58.2744 16.4586 59.7904 16.4736 60.2953 16.5199C60.431 16.6539 60.3905 16.6812 60.4067 16.9142C60.6364 17.1296 60.8848 16.8787 61.16 17.0699L61.1899 17.2675C61.0734 17.4684 61.0429 17.3739 60.7609 17.516L60.7018 17.7123C60.911 17.8664 61.117 17.963 61.1562 18.2347C61.4445 18.2377 61.3959 18.2847 61.5534 18.1392C61.607 17.8713 61.5958 17.5929 61.739 17.4329C61.9407 17.3945 61.9805 17.4251 62.1841 17.4937C62.2326 17.6495 62.2264 17.6829 62.2283 17.8487C62.5053 18.0233 62.5389 17.8099 62.8166 17.9705C62.8266 18.1104 62.8079 18.4733 62.8944 18.5032C63.8793 18.8446 63.2823 19.2001 63.5581 19.6591C63.6844 19.7103 63.6956 19.7089 63.8245 19.7287C64.0324 20.0324 63.9677 20.7308 63.9621 21.1188L62.1754 21.1194L62.1878 21.9581C62.7655 21.9556 63.3844 21.9412 63.9577 21.9529C63.9615 22.2221 64.0163 23.3121 63.8936 23.4878C63.7735 23.5031 63.6645 23.5152 63.5437 23.5251C63.4043 23.7206 63.5039 24.0559 63.4746 24.3022C63.4504 24.5046 62.928 24.439 62.8483 24.6317C62.7618 24.8427 62.9056 25.0339 62.783 25.231C62.6759 25.2432 62.2974 25.2531 62.2688 25.2913C62.0851 25.5393 62.1996 25.7413 61.8404 25.7973C61.3909 25.5185 61.6618 25.2129 61.536 24.7569C61.5142 25.0828 61.513 25.3289 61.5198 25.6561L60.7236 25.667C60.9141 25.6913 60.99 25.6961 61.1699 25.7569C61.2266 25.8945 61.2054 25.9382 61.1793 26.0837C60.995 26.2154 60.9284 26.1653 60.6582 26.1614C60.5063 26.2947 60.5561 26.2587 60.5337 26.5337C60.3756 26.6239 58.6175 26.6127 58.333 26.6077C57.4832 26.5926 57.7745 26.6232 57.5486 26.1895C57.5255 26.1449 57.1109 26.2179 56.926 26.027C57.0418 25.5807 58.4214 24.9732 57.7117 24.2767C57.4994 24.2197 57.5828 24.2266 57.3524 24.3018C57.2049 24.4332 57.1837 24.4707 57.147 24.6652C57.0026 24.8143 56.9005 24.7082 56.6079 24.7797C56.5195 24.9312 56.5624 25.4924 56.5668 25.7035C56.352 25.7135 56.1659 25.7453 55.9741 25.6613L55.8851 25.3916C55.6547 25.1851 55.6834 25.305 55.2899 25.2265C55.1997 25.0463 55.2725 24.8464 55.2376 24.5684C55.0951 24.4464 55.0197 24.5055 54.8037 24.4909C54.4177 24.4648 54.7676 23.7911 54.5684 23.5082C54.4202 23.5058 54.3256 23.5228 54.2085 23.4376C54.1264 23.1246 54.1656 22.3157 54.1718 21.9512L55.8297 21.9513L55.8409 21.1173L54.1656 21.1237Z" fill="#F0EFE7"/>
<path d="M60.2754 24.2914C60.5014 24.2855 60.6657 24.2749 60.8917 24.3098C61.3275 24.5818 60.8625 24.7471 61.5379 24.7566C61.5161 25.0824 61.5149 25.3286 61.5217 25.6558L60.7255 25.6667C60.7267 25.5078 60.7305 25.5078 60.685 25.3581C60.1316 25.1772 60.2561 24.7866 60.2754 24.2914Z" fill="#DD3430"/>
<path d="M60.275 18.8119C60.2769 18.1805 60.0117 17.848 60.7027 17.7148C60.9119 17.8689 61.118 17.9655 61.1572 18.2372C61.0881 18.4582 61.1634 18.477 61.0221 18.7459C60.8515 18.8678 60.5048 18.82 60.275 18.8119Z" fill="#DD3430"/>
<path d="M2.98043 1.65744C3.03291 1.51291 3.04038 1.38868 3.16875 1.35505C3.71927 1.2109 4.13016 1.24776 4.65896 1.37025C4.77986 1.46527 4.77867 1.53769 4.81503 1.68907C5.12469 1.76996 4.93674 1.91723 5.43559 1.98019C5.44014 2.62338 5.67521 3.99352 4.77737 4.08761C4.77089 4.2403 4.75477 4.34024 4.73105 4.49162C4.55617 4.59157 3.38104 4.54163 3.10774 4.52849C3.00172 4.41192 3.03023 4.28868 3.01734 4.09795L2.85473 4.06868C2.70632 3.91587 2.75214 3.97945 2.70588 3.74469C2.55248 3.74674 2.51582 3.75957 2.38825 3.67196C2.22882 3.22112 2.29942 2.51435 2.34163 2.03511C2.46583 1.94364 2.50698 1.98393 2.70868 1.9932C2.72574 1.75271 2.74224 1.70178 2.98043 1.65744Z" fill="#DD3430"/>
<path d="M4.81861 1.69141C5.12827 1.7723 4.94032 1.91957 5.43918 1.98252C5.44372 2.62571 5.6788 3.99585 4.78095 4.08994L4.7614 3.66688L4.74752 3.63786C4.76557 3.26156 4.88018 2.16983 4.625 1.94285L4.79016 1.88638L4.81861 1.69141Z" fill="#1E1C1D"/>
<path d="M4.81861 1.69141C5.12827 1.7723 4.94032 1.91957 5.43918 1.98252C5.28802 1.98732 4.95688 1.97748 4.84196 2.04268C5.00102 2.51045 5.42448 3.4696 4.7614 3.66688L4.74752 3.63786C4.76557 3.26156 4.88018 2.16983 4.625 1.94285L4.79016 1.88638L4.81861 1.69141Z" fill="#932427"/>
<path d="M3.01562 4.09889C3.34433 4.07062 4.48566 4.0388 4.77565 4.08855C4.76917 4.24124 4.75305 4.34118 4.72933 4.49256C4.55445 4.59251 3.37932 4.54257 3.10602 4.52943C3 4.41286 3.02851 4.28962 3.01562 4.09889Z" fill="#1E1C1D"/>
<path d="M2.70588 3.74488C2.55248 3.74693 2.51582 3.75976 2.38825 3.67215C2.22882 3.22131 2.29942 2.51454 2.34163 2.0353C2.46583 1.94383 2.50698 1.98412 2.70868 1.99339C2.79298 2.3342 2.8317 3.43309 2.70588 3.74488Z" fill="#1E1C1D"/>
<path d="M4.74118 3.63672L4.75506 3.66574L4.77461 4.0888C4.48463 4.03905 3.3433 4.07087 3.01459 4.09914L2.85198 4.06987C2.70356 3.91706 2.74938 3.98064 2.70312 3.74588C3.2374 3.6549 3.92395 3.78872 4.74118 3.63672Z" fill="#932427"/>
<path d="M2.98438 1.65744C3.03686 1.51291 3.04433 1.38868 3.1727 1.35505C3.72322 1.2109 4.13411 1.24776 4.6629 1.37025C4.7838 1.46527 4.78262 1.53769 4.81898 1.68907L4.79053 1.88404L4.62537 1.94052L4.61372 1.7826C4.40672 1.60177 3.38368 1.68098 2.98438 1.65744Z" fill="#1E1C1D"/>
<path d="M2.71094 1.99592C2.728 1.75543 2.74449 1.70449 2.98268 1.66016C3.38199 1.68369 4.40503 1.60449 4.61203 1.78532L4.62367 1.94324C4.33306 1.94859 2.85686 2.02145 2.71094 1.99592Z" fill="#932427"/>
<path d="M2.97625 50.1783C3.02736 50.0532 3.04641 49.9252 3.14271 49.8938C3.5833 49.7504 4.28205 49.8497 4.74766 49.8524L4.79068 50.5719C5.10718 50.5598 5.12511 50.5063 5.34849 50.6457C5.55754 51.0836 5.41292 51.7543 5.43838 52.3347C5.20524 52.4163 5.13321 52.3883 5.02333 52.6311L4.94445 52.6809C4.64052 52.7575 4.87958 52.8185 4.6841 53.0427C3.99549 53.1511 2.86674 53.2781 2.73725 52.3266C2.54606 52.3391 2.52608 52.3472 2.34852 52.2886C2.31266 51.8683 2.19245 50.8905 2.44956 50.5752L2.72598 50.5774C2.74285 50.3361 2.70556 50.3776 2.82285 50.2022L2.97625 50.1783Z" fill="#DD3430"/>
<path d="M4.78781 50.571C5.10431 50.5589 5.12224 50.5053 5.34561 50.6448C5.55467 51.0826 5.41005 51.7534 5.43551 52.3338C5.20236 52.4154 5.13034 52.3873 5.02046 52.6302L4.94158 52.68C4.63765 52.7566 4.87671 52.8176 4.68123 53.0418C3.99262 53.1501 2.86387 53.2772 2.73438 52.3257L3.09894 52.3276C3.6316 52.3406 4.2112 52.322 4.74784 52.3139L4.75245 50.7474L4.76216 50.5875L4.78781 50.571Z" fill="#932427"/>
<path d="M2.73438 52.3242L3.09894 52.3261L3.13655 52.5833C3.4383 52.8049 4.25963 52.7041 4.62134 52.6524C4.70108 52.5422 4.69598 52.5173 4.72468 52.3859L4.84029 52.3846C4.92551 52.5254 4.92539 52.5166 4.94158 52.6785C4.63765 52.7551 4.87671 52.8162 4.68123 53.0403C3.99262 53.1487 2.86387 53.2757 2.73438 52.3242Z" fill="#1E1C1D"/>
<path d="M4.79317 50.571C5.10968 50.5589 5.12761 50.5053 5.35098 50.6448C5.56003 51.0826 5.41542 51.7534 5.44088 52.3338C5.32452 52.33 5.25411 52.3163 5.14155 52.297C4.82941 51.9315 5.27652 51.424 5.01275 50.9201C4.87566 50.8704 4.85007 50.8599 4.75781 50.7474L4.76752 50.5875L4.79317 50.571Z" fill="#1E1C1D"/>
<path d="M2.73725 52.3256C2.54606 52.3381 2.52608 52.3462 2.34852 52.2877C2.31266 51.8673 2.19245 50.8896 2.44956 50.5742L2.72598 50.5765C2.79732 51.0306 2.79707 51.8686 2.73725 52.3256Z" fill="#1E1C1D"/>
<path d="M2.97656 50.1783C3.02767 50.0532 3.04672 49.9252 3.14303 49.8938C3.58361 49.7504 4.28237 49.8497 4.74798 49.8524L4.79099 50.5719L4.76535 50.5884L4.60311 50.5511L4.48433 50.4739L4.47312 50.2424C4.24221 50.1714 3.29207 50.1886 2.97656 50.1783Z" fill="#1E1C1D"/>
<path d="M2.72656 50.5749C2.74343 50.3336 2.70614 50.3751 2.82343 50.1997L2.97683 50.1758C3.29234 50.1861 4.24248 50.1689 4.47339 50.2399L4.48459 50.4714L4.60338 50.5486C4.03517 50.5628 3.27983 50.6019 2.72656 50.5749Z" fill="#932427"/>
<path d="M78.3894 1.65516L78.4162 1.41318C78.705 1.20619 79.5772 1.23477 79.896 1.38896C79.9564 1.54856 79.9439 1.46381 79.9016 1.65367L80.15 1.70753L80.1637 1.74135C80.2054 1.84521 80.2116 1.87454 80.2857 1.96234L80.6493 1.99392C80.7906 2.22301 80.8037 3.5919 80.5901 3.79634L80.3106 3.83351L80.2926 3.87399C80.2197 4.15825 80.2079 4.06584 80.0049 4.28946C79.6376 4.69509 78.9634 4.62553 78.5208 4.49078C78.4137 4.36263 78.4224 4.32632 78.4 4.15221L78.2226 4.1075C78.0352 3.77186 77.9511 3.82467 77.6125 3.80611C77.6075 3.45267 77.5415 2.20993 77.6915 2.00506C77.8739 1.99796 77.8957 2.00145 78.0651 1.94204C78.0924 1.85891 78.118 1.78593 78.1497 1.70423L78.3894 1.65516Z" fill="#DD3430"/>
<path d="M79.8985 1.65234L80.1469 1.70621L80.1606 1.74002C80.2023 1.84389 80.2085 1.87322 80.2826 1.96102L80.6462 1.99259C80.7875 2.22168 80.8006 3.59058 80.587 3.79501L80.3075 3.83219L80.2895 3.87266C80.2166 4.15693 80.2048 4.06452 80.0019 4.28813C79.6345 4.69376 78.9603 4.62421 78.5177 4.48945C78.4106 4.3613 78.4193 4.325 78.3969 4.15089L78.2195 4.10618C78.0321 3.77054 77.948 3.82334 77.6094 3.80479L78.1292 3.73112C78.7872 3.74495 79.3351 3.72371 79.9938 3.68996C80.0541 3.11402 80.0106 2.62239 80.1058 2.01519L79.9197 1.95903L79.8985 1.65234Z" fill="#932427"/>
<path d="M79.8984 1.65234L80.1468 1.70621L80.1605 1.74002C80.2022 1.84389 80.2085 1.87322 80.2825 1.96102L80.6461 1.99259C80.7874 2.22168 80.8005 3.59058 80.587 3.79501L80.3075 3.83219C80.2327 3.48783 80.3535 2.72514 80.1979 2.34118C80.1419 2.20325 80.145 2.21309 80.1138 2.05741L80.1057 2.01519L79.9196 1.95903L79.8984 1.65234Z" fill="#1E1C1D"/>
<path d="M78.3984 4.15129C78.7882 4.10179 79.2165 4.16867 79.6155 4.12906C80.06 4.08497 79.8166 4.01859 80.0389 3.83203L80.291 3.87307C80.2182 4.15733 80.2063 4.06492 80.0034 4.28854C79.6361 4.69417 78.9618 4.62461 78.5192 4.48986C78.4121 4.3617 78.4208 4.3254 78.3984 4.15129Z" fill="#1E1C1D"/>
<path d="M77.6125 3.8072C77.6075 3.45375 77.5415 2.21102 77.6915 2.00615C77.8739 1.99905 77.8957 2.00254 78.0651 1.94313C78.0924 1.86 78.118 1.78702 78.1497 1.70532L78.3894 1.65625L78.3558 1.99382C78.3035 2.15099 78.311 2.15672 78.2082 2.28138C77.9468 2.59784 78.103 3.34602 78.1323 3.73353L77.6125 3.8072Z" fill="#1E1C1D"/>
<path d="M78.3828 1.65516L78.4096 1.41318C78.6985 1.20619 79.5706 1.23477 79.8894 1.38896C79.9498 1.54856 79.9373 1.46381 79.895 1.65367C79.524 1.70784 78.7576 1.68979 78.3828 1.65516Z" fill="#1E1C1D"/>
<path d="M79.8974 1.65234L79.9185 1.95903C79.5624 1.91525 78.7089 1.95168 78.3516 1.99141L78.3852 1.65384C78.76 1.68846 79.5263 1.70652 79.8974 1.65234Z" fill="#932427"/>
<path d="M78.3896 49.9992C78.4294 49.8957 78.4095 49.9347 78.5004 49.8554C79.0072 49.8043 79.4772 49.8284 79.9808 49.8991L79.9846 50.1321L80.124 50.2219C80.3276 50.7982 80.6725 50.467 80.6862 50.7005C80.7043 50.9991 80.7783 52.0892 80.6694 52.3128C80.5162 52.3445 80.4745 52.3445 80.3164 52.3464C80.1097 52.6752 79.9734 53.0625 79.5706 53.1105C78.9007 53.1902 78.554 53.0993 78.1505 52.5619L78.14 52.3041C77.9519 52.3196 77.7583 52.3483 77.6183 52.2524C77.6027 51.6826 77.6083 51.2077 77.6295 50.6376L77.7328 50.5427L77.9688 50.5569C78.135 50.454 78.087 50.4568 78.1655 50.2115C78.3442 50.1453 78.2819 50.1909 78.3896 49.9992Z" fill="#DD3430"/>
<path d="M79.9529 50.5649C79.8962 50.3717 79.8931 50.4625 79.9392 50.2836L80.1247 50.2227C80.3283 50.799 80.6732 50.4678 80.6869 50.7013C80.7049 50.9999 80.779 52.09 80.6701 52.3135C80.5169 52.3453 80.4752 52.3453 80.3171 52.3471C80.1104 52.6759 79.974 53.0633 79.5713 53.1112C78.9014 53.1909 78.5546 53.1 78.1512 52.5626L78.1406 52.3048L78.4426 52.3222C78.8304 52.321 79.5694 52.2986 79.9311 52.3297C80.5649 52.2724 80.2386 50.9921 80.0948 50.6074L79.9529 50.5649Z" fill="#1E1C1D"/>
<path d="M78.4453 52.3215C78.8332 52.3202 79.5721 52.2978 79.9338 52.3289C79.9102 52.4765 79.9108 52.4771 79.8492 52.6129C79.4993 52.7599 78.8008 52.8078 78.482 52.5861L78.4453 52.3215Z" fill="#932427"/>
<path d="M78.3882 49.9992C78.428 49.8957 78.4081 49.9347 78.499 49.8554C79.0058 49.8043 79.4758 49.8284 79.9794 49.8991L79.9832 50.1321L80.1226 50.2219L79.9371 50.2828C79.891 50.4617 79.8941 50.3709 79.9508 50.5642C79.558 50.5274 78.7125 50.5615 78.2848 50.5677C78.3546 50.3878 78.3558 50.4549 78.3216 50.2814L78.1641 50.2115C78.3427 50.1453 78.2805 50.1909 78.3882 49.9992Z" fill="#932427"/>
<path d="M78.3906 49.9992C78.4305 49.8957 78.4105 49.9347 78.5014 49.8554C79.0082 49.8043 79.4782 49.8284 79.9819 49.8991C79.937 50.0006 79.9146 50.1338 79.81 50.1499C79.4913 50.1991 78.4902 50.3838 78.3906 49.9992Z" fill="#1E1C1D"/>
<path d="M78.1655 50.2109L78.323 50.2809C78.3572 50.4544 78.356 50.3873 78.2863 50.5671C77.772 50.9241 78.214 51.8982 78.14 52.3035C77.9519 52.3191 77.7583 52.3478 77.6183 52.2519C77.6027 51.6821 77.6083 51.2072 77.6295 50.6371L77.7328 50.5422L77.9688 50.5564C78.135 50.4534 78.087 50.4562 78.1655 50.2109Z" fill="#1E1C1D"/>
</svg>
