<svg width="828" height="676" viewBox="0 0 828 676" fill="none" xmlns="http://www.w3.org/2000/svg">
<path d="M597.883 231.264L598.999 234.685C603.19 236.11 603.503 234.141 606.6 236.102C606.776 238.363 606.409 239.017 607.709 240.361L610.989 240.2C611.983 241.699 611.846 242.08 611.891 243.97C613.642 245.538 614.269 245.544 616.609 246.021C617.076 246.555 618.238 247.958 618.712 248.339C615.921 251.278 616.586 255.174 616.64 259.511C619.89 259.26 619.76 258.725 621.985 260.18C622.428 262.42 622.344 262.901 622.084 265.187C626.175 263.771 627.184 259.826 629.624 259.299C634.426 258.26 634.028 261.456 636.368 254.643C638.96 253.969 638.761 254.367 641.667 255.123L641.957 257.653C644.527 259.585 648.09 258.175 649.352 259.342C654.276 263.915 653.764 268.761 661.288 269.152C661.112 271.246 661.586 273.384 659.193 273.899C654.383 274.935 648.931 276.672 646.155 281.141L646.071 283.748C646.14 289.264 645.544 304.109 646.943 308.315L647.975 307.329C647.937 305.656 647.417 296.46 647.7 295.846L649 296.233C650.17 298.495 649.933 312.225 650.606 317.277L650.56 317.93L650.843 323.131C650.965 328.312 651.118 332.601 650.682 337.788C643.999 337.681 639.755 340.943 632.881 343.611C632.055 344.87 631.52 345.684 630.847 347.025L628.247 348.25L626.726 349.133C625.976 352.343 625.907 358.705 626.412 361.991C627.735 374.737 627.834 374.717 617.45 382.887C616.915 383.311 617.122 387.064 614.812 386.846C611.7 387.151 609.521 386.117 607.097 387.444L606.676 390.689C604.176 392.389 601.561 390.862 598.609 391.69C596.392 392.314 597.799 395.636 595.65 395.933C587.866 397.009 575.762 396.334 568.085 396.167C567.817 388.766 567.037 386.363 572.191 380.384C577.941 373.723 588.623 375.864 587.576 365.984L587.04 366.138C583.546 367.108 580.587 366.64 578.293 368.31L577.49 371.633C571.113 374.15 565.08 375.029 558.886 377.739C558.297 379.178 558.167 379.703 557.815 381.222C553.755 382.508 550.727 381.365 548.51 382.822L547.952 385.914C544.885 387.991 541.911 385.529 538.003 388.745C536.421 390.044 527.887 395.599 525.563 395.883C523.292 396.161 520.585 395.859 519.086 397.238L517.924 400.642C514.024 402.539 511.577 400.612 509.016 402.679L508.534 405.381C503.281 408.465 495.466 403.05 493.677 410.189C493.44 411.149 486.397 411.162 485.373 411.22C484.187 411.344 483.813 414.68 483.629 414.759C477.061 417.58 477.16 413.688 473.88 420.389C472.152 421.411 471.8 421.51 469.858 422.004C475.073 430.641 528.774 537.566 528.025 540.379C527.36 542.9 525.035 544.758 522.825 545.975C516.226 549.613 504.481 552.815 497.041 552.864L491.91 557.914C478.904 557.711 453.594 572.01 438.117 572.784C434.34 577.321 422.236 582.294 416.248 582.579C414.582 582.438 412.341 582.784 410.628 582.979C403.401 581.363 374.305 562.525 366.097 557.893C357.19 552.866 335.398 543.675 329.42 537.226C321.184 528.342 353.8 490.348 346.233 481.254C343.535 482.186 343.443 483.285 340.754 484.138C330.394 487.425 320.417 492.663 311.526 498.858C308.656 500.858 304.556 496.727 302.695 503.077C293.065 506.433 284.205 511.614 274.627 515.279C272.979 515.909 265.627 521.137 263.081 522.417C257.296 525.325 251.613 527.431 245.444 529.315C243.578 533.271 243.874 532.981 239.013 534.727L225.885 539.4C224.794 541.732 224.515 543.557 221.538 543.522C214.628 543.439 216.401 546.666 210.768 549.109C210.401 544.276 210.464 537.387 210.362 532.395C207.404 533.09 207.72 533.478 205.469 531.972L205.444 530.143C206.807 527.765 205.926 528.502 209.041 527.599L210.361 524.769C212.21 523.243 214.787 523.574 217.372 523.504C219.455 521.305 219.378 523.493 222.708 522.044C224.082 519.293 223.898 520.432 223.754 517.613C222.152 516.426 219.564 517.177 216.577 517.08L215.823 515.885L215.42 515.448C213.841 511.358 216.275 507.9 213.619 504.632L210.981 504.748L211.299 503.939C212.887 503.799 213.409 503.854 214.86 503.111C215.9 498.812 217.329 494.027 213.837 490.111C209.416 485.152 209.44 484.898 202.966 484.075C196.225 483.855 198.448 483.571 192.321 479.255C190.422 477.917 190.878 476.388 190.742 473.757C190.832 472.809 191.112 471.829 191.333 470.89C193.087 469.59 196.663 469.754 199.077 469.63C197.769 466.931 197.701 467.101 198.758 464.705C208.789 465.077 202.702 459.106 214.481 460.909C214.585 458.647 214.497 458.358 215.445 456.368C218.984 454.969 223.998 452.653 227.508 451.626C231.048 450.591 235.437 450.505 239.274 449.272L240.249 446.093C243.92 444.237 244.318 446.655 248.491 445.167C248.815 443.844 249.109 442.514 249.372 441.177C253.059 438.937 255.782 441.537 259.332 439.624L260.227 436.331C264.791 433.224 267.066 439.872 269.486 431.593C275.71 428.847 281.79 427.622 288.239 425.126C288.45 423.382 288.541 422.942 289.06 421.266C291.504 419.505 293.474 421.072 297.509 420.101C297.81 419.281 298.573 417.17 299.38 416.849C304.23 414.922 313.185 412.714 317.511 410.443L318.087 407.318C321.266 405.241 324.284 407.793 327.142 406.008L327.907 402.623C331.282 399.941 346.752 396.591 351.89 395.261L352.638 392.273C356.936 389.627 360.259 394.275 362.747 387.403C363.245 386.029 368.371 387.179 371.283 385.856L372.079 382.866C373.953 381.438 377.595 381.618 380.336 381.377C381.866 379.889 381.94 379.616 382.596 378.294C383.019 377.438 390.357 375.362 391.683 374.762C393.4 373.984 399.543 372.532 400.608 371.189C400.986 370.712 400.715 367.02 402.957 366.643C403.684 366.706 409.39 366.751 409.665 366.497C418.122 358.703 421.723 356.718 433.422 356.971C435.533 357.016 434.103 353.609 436.496 352.714C441.727 350.755 449.396 349.995 454.053 347.019C454.091 344.993 454.091 344.884 454.787 343C456.66 341.662 460.124 342.618 463.611 341.993L465.132 338.487C468.252 336.503 470.21 338.68 474.369 337.33C475.983 329.854 486.397 330.804 493.478 327.439L494.449 324.26C499.618 320.898 501.583 326.81 504.512 319.406C506.095 318.01 510.468 318.122 513.252 317.692C513.955 316.379 514.544 315.199 515.186 313.853C520.929 311.442 527.184 309.473 533.094 307.375L533.691 304.032C535.992 302.501 538.554 304.372 542.576 303.071C543.035 298.379 543.647 299.12 548.181 297.857C550.666 297.162 554.397 295.8 556.691 295.299C564.498 293.594 560.629 292.069 563.298 288.589C565.714 287.223 567.955 287.704 570.753 287.926C573.124 286.57 572.344 287.42 573.384 284.147C573.46 278.349 573.613 272.552 573.858 266.759C576.741 262.92 581.856 254.693 585.075 252.412C587.553 249.759 587.453 245.015 587.843 241.241C592.523 238.054 595.161 236.214 597.883 231.264Z" fill="#E9D80C"/>
<path d="M464.263 425.914L465.219 421.934C467.131 420.812 467.146 421.34 469.853 422.003C475.068 430.641 528.769 537.565 528.02 540.379C527.354 542.9 525.03 544.758 522.82 545.974C516.221 549.613 504.476 552.814 497.036 552.863L491.905 557.914C478.899 557.71 453.589 572.009 438.112 572.783C434.335 577.321 422.23 582.293 416.243 582.578C414.576 582.438 412.336 582.784 410.623 582.978C403.396 581.363 374.3 562.525 366.092 557.892C357.185 552.865 335.392 543.674 329.414 537.225C321.178 528.341 353.794 490.348 346.228 481.253C350.226 479.02 353.797 480.873 356.797 478.721L357.07 475.251C359.689 473.352 362.592 474.805 365.828 473.886C368.697 473.071 366.514 471.817 368.684 470.473C371.154 468.944 374.35 469.83 376.441 468.328L376.734 465.264C379.812 463.507 383.703 465.976 386.588 463.902L386.921 460.904C390.295 458.837 392.752 461.62 396.334 459.435L396.794 455.92C399.266 454.312 401.817 456.043 405.625 454.542L406.449 451.306C408.673 449.78 411.977 450.723 415.823 450.025C416.725 448.596 416.618 448.283 416.702 446.507L416.717 445.974C419.394 444.181 422.468 446.41 425.572 444.39L425.993 441.121C430.022 438.823 431.46 441.606 435.199 439.542L435.566 436.375C439.144 434.184 440.567 436.666 445.178 434.821C445.904 433.324 445.935 433.178 446.974 431.909L450.477 431.623C452.327 432.013 453.138 432.385 454.866 431.837L455.546 431.009C460.7 430.041 457.802 426.807 464.133 426.378L464.263 425.914Z" fill="#DD3430"/>
<path d="M430.439 523.369C430.409 520.054 429.866 511.693 431.288 509.546L435.303 508.99C436.427 504.726 433.651 498.87 435.922 494.761C438.239 493.405 437.719 493.852 440.923 494.238C440.969 497.268 441.473 508.33 439.432 508.776C431.9 510.417 437.971 517.47 434.89 522.708C432.978 523.754 432.726 523.597 430.439 523.369Z" fill="black"/>
<path d="M416.079 572.221C416.355 566.393 414.42 556.303 417.685 552.686L421.157 552.689C421.134 557.995 422.105 566.99 420.124 571.812C419.788 572.637 416.943 572.38 416.079 572.221Z" fill="black"/>
<path d="M454.865 431.838L455.546 431.01C460.699 430.042 457.801 426.808 464.133 426.379C464.576 429.356 464.974 428.715 463.681 430.556C462.611 430.877 460.508 431.247 460.348 431.991C459.376 436.515 460.837 440.213 459.415 445.028C457.35 445.625 458.222 445.611 456.012 444.731C453.917 441.577 455.232 436.137 454.865 431.838Z" fill="black"/>
<path d="M421.157 552.688C421.142 548.373 419.59 541.323 422.648 538.223L425.799 538.209C425.944 542.539 426.655 548.346 425.019 552.099C423.413 553.008 423.092 552.84 421.157 552.688Z" fill="black"/>
<path d="M430.436 523.369C430.497 527.86 431.162 533.652 429.724 537.535C427.935 538.643 428.31 538.267 425.794 538.21C425.794 534.554 424.617 527.234 426.689 524.392C427.362 523.473 429.029 523.555 430.436 523.369Z" fill="black"/>
<path d="M440.921 494.239C440.707 490.305 439.752 483.148 441.954 480.148C443.215 479.917 444.026 479.691 445.326 479.825C445.349 483.953 445.938 489.515 444.722 493.049C442.856 494.402 443.498 493.99 440.921 494.239Z" fill="black"/>
<path d="M410.625 582.979C411.214 579.457 410.182 577.235 411.244 573.713C413.286 571.816 412.667 572.38 416.077 572.221L416.245 582.579C414.578 582.438 412.338 582.784 410.625 582.979Z" fill="black"/>
<path d="M450.521 464.732C450.445 459.848 449.152 448.668 452.081 445.589L454.887 444.648C455.086 449.528 456.462 461.209 453.671 464.676L450.521 464.732Z" fill="black"/>
<path d="M450.517 464.733C450.035 469.084 451.022 473.151 450.12 477.383C449.554 480.067 447.719 479.744 445.532 480.072C445.532 475.45 444.454 470.192 445.914 466.003C447.642 464.273 447.497 464.808 450.517 464.733Z" fill="black"/>
<path d="M591.463 363.033C591.578 364.224 591.754 364.703 592.06 365.841C596.082 367.887 611.107 367.262 615.932 365.882L617.438 363.105C619.694 361.401 623.441 361.919 626.408 361.991C627.73 374.737 627.83 374.716 617.446 382.887C616.911 383.311 617.117 387.063 614.808 386.846C611.696 387.151 609.516 386.117 607.093 387.444L606.672 390.689C604.172 392.388 601.557 390.861 598.605 391.69C596.387 392.314 597.794 395.636 595.646 395.933C587.862 397.009 575.757 396.334 568.08 396.167C567.813 388.765 567.033 386.363 572.186 380.383C577.936 373.722 588.619 375.864 587.571 365.984L587.961 365.277C589.85 364.479 590.056 364.47 591.463 363.033Z" fill="#FEFEFE"/>
<path d="M622.084 265.187C626.174 263.772 627.184 259.826 629.623 259.299C634.425 258.26 634.027 261.457 636.367 254.643C638.959 253.969 638.761 254.367 641.666 255.124L641.957 257.654C644.526 259.585 648.089 258.175 649.351 259.342C654.275 263.916 653.763 268.761 661.287 269.152C661.111 271.246 661.585 273.384 659.192 273.9C654.382 274.935 648.93 276.672 646.155 281.141L646.071 283.749C646.139 289.265 645.543 304.11 646.942 308.315L636.352 308.456C635.61 302.565 636.994 295.757 635.962 289.882C635.549 287.518 629.638 285.12 627.046 283.365L626.779 280.213C625.387 278.969 624.286 279.408 621.969 279.38C619.239 277.757 618.146 272.732 616.127 270.19C615.661 269.604 612.587 269.516 611.554 269.408L611.539 269.212L619.339 269.147C621.854 267.747 621.044 268.657 622.084 265.187Z" fill="#BD8A63"/>
<path d="M636.352 308.456C637.239 300.074 633.736 284.63 646.07 283.748C646.139 289.264 645.543 304.109 646.942 308.315L636.352 308.456Z" fill="black"/>
<path d="M597.878 231.264L598.995 234.685C603.185 236.11 603.498 234.141 606.595 236.102C606.771 238.363 606.404 239.017 607.704 240.361L610.984 240.2C611.978 241.699 611.841 242.08 611.887 243.97C613.638 245.538 614.265 245.544 616.604 246.021C617.071 246.555 618.233 247.958 618.707 248.339C615.916 251.278 616.581 255.174 616.635 259.511C619.885 259.26 619.755 258.725 621.98 260.18C622.423 262.42 622.339 262.901 622.079 265.187C621.039 268.657 621.85 267.746 619.334 269.146L611.535 269.211C608.859 268.916 608.981 269.374 607.237 267.764C606.695 265.164 606.84 263.122 606.886 260.481C606.442 264.379 606.702 268.931 601.939 270.24C599.889 269.784 599.698 269.319 598.169 267.718L597.435 264.622C595.6 264.437 594.988 264.34 593.206 263.872C592.426 262.385 591.692 260.879 590.989 259.356L587.41 258.553C587.731 254.971 587.418 254.788 585.07 252.412C587.548 249.759 587.448 245.015 587.838 241.241C592.518 238.054 595.156 236.214 597.878 231.264Z" fill="#BD8A63"/>
<path d="M606.888 260.481C606.881 257.963 606.567 256.476 608.54 254.928C614.045 257.388 609.396 258.545 616.638 259.51C619.887 259.259 619.757 258.725 621.982 260.179C622.426 262.42 622.342 262.901 622.082 265.186C621.042 268.656 621.853 267.746 619.337 269.146L611.537 269.211C608.861 268.916 608.983 269.374 607.24 267.764C606.697 265.163 606.842 263.122 606.888 260.481Z" fill="black"/>
<path d="M215.864 474.477C218.386 474.511 221.818 474.163 223.587 475.59C224.547 478.575 223.832 477.545 226.277 479.489C228.733 479.699 228.506 479.265 229.876 480.592L229.882 483.821C233.002 486.266 234.755 482.383 235.413 489.359C235.794 493.402 235.98 500.702 233.645 504.063C232.365 504.286 231.292 504.529 229.986 504.519C228.197 512.324 225.634 506.468 225.193 515.728L215.819 515.886L215.415 515.449C213.836 511.359 216.27 507.901 213.614 504.633L210.976 504.749L211.294 503.941C212.882 503.8 213.405 503.855 214.855 503.112C215.895 498.814 217.324 494.028 213.832 490.112C209.411 485.153 209.435 484.899 202.961 484.076C205.033 476.894 208.935 481.648 214.512 479.584C215.766 477.565 215.283 477.475 215.034 474.729L215.864 474.477Z" fill="#BD8A63"/>
<path d="M215.416 515.447C215.401 511.757 215.356 507.834 220.42 508.348C225.108 508.826 225.11 512.601 225.194 515.727L215.82 515.885L215.416 515.447Z" fill="black"/>
<path d="M591.469 363.034C592.692 361.413 594.55 362.325 596.493 359.96C598.771 357.186 603.237 358.475 606.678 356.168L607.075 352.906C609.423 351.167 611.908 352.713 616.029 351.654C617.1 349.572 617.13 349.316 618.881 347.856C621.779 347.113 625.228 347.837 628.248 348.25L626.727 349.134C625.977 352.344 625.909 358.705 626.413 361.992C623.446 361.92 619.7 361.402 617.444 363.106L615.938 365.883C611.113 367.263 596.087 367.888 592.065 365.842C591.759 364.704 591.583 364.225 591.469 363.034Z" fill="#705292"/>
<path d="M585.074 252.412C587.422 254.789 587.735 254.971 587.414 258.553C586.909 265.345 587.101 272.191 587.185 279.003C579.882 280.066 583.423 283.326 576.044 283.994C575.157 284.069 574.27 284.12 573.383 284.148C573.459 278.349 573.612 272.552 573.857 266.759C576.74 262.92 581.855 254.694 585.074 252.412Z" fill="#705292"/>
<path d="M587.414 258.553L590.992 259.356C591.696 260.88 592.43 262.385 593.21 263.872C594.992 264.34 595.603 264.438 597.438 264.623C597.163 269.851 597.11 274.773 597.071 280.006C597.094 282.802 597.163 285.748 597.11 288.529L587.246 288.587L587.184 279.003C587.1 272.191 586.909 265.344 587.414 258.553Z" fill="black"/>
<path d="M225.195 515.726C225.636 506.467 228.199 512.322 229.988 504.518C230.463 510.866 230.81 515.605 238.512 511.617L239.822 509.499L254.515 509.3C254.405 511.854 254.854 511.994 253.41 513.552C251.49 513.683 247.649 513.889 246.02 513.868C244.956 513.853 241.942 518.657 239.082 518.967C235.654 519.339 233.285 518.193 230.836 519.876C230.063 521.461 230.018 521.476 229.7 523.187C227.607 523.678 227.113 523.717 224.96 523.709L217.369 523.503C219.452 521.304 219.375 523.493 222.704 522.043C224.079 519.292 223.895 520.432 223.751 517.612C222.149 516.426 219.561 517.176 216.574 517.079L215.82 515.884L225.195 515.726Z" fill="black"/>
<path d="M225.195 515.726C225.636 506.467 228.199 512.322 229.988 504.518C230.463 510.866 230.81 515.605 238.512 511.617L239.822 509.499C239.99 512.156 240.475 512.335 239.172 514.15C234.881 514.699 233.335 511.35 230.079 514.804L229.718 518.121C227.734 518.962 227.303 519.155 225.175 519.433C224.858 521.347 224.803 521.78 224.96 523.709L217.369 523.503C219.452 521.304 219.375 523.493 222.704 522.043C224.079 519.292 223.895 520.432 223.751 517.612C222.149 516.426 219.561 517.176 216.574 517.079L215.82 515.884L225.195 515.726Z" fill="#E9D80C"/>
<path d="M650.555 317.93L650.838 323.131C648.705 323.155 645.692 322.772 643.91 323.744C634.574 328.83 617.874 338.084 607.2 337.543C606.94 335.668 606.993 335.541 607.376 333.661C610.816 331.59 611.956 334.31 616.138 332.475C617.155 323.77 625.635 331.227 631.875 327.191L632.188 323.978C633.672 322.129 634.138 322.662 637.182 322.294C638.145 321.597 638.275 320.721 638.581 319.637C638.734 321.029 638.611 321.042 639.491 322.097C640.661 321.301 640.898 320.707 641.639 319.515L641.915 319.062C644.262 317.367 647.527 317.857 650.555 317.93Z" fill="black"/>
<path d="M254.516 509.301C254.649 506.825 254.27 506.79 255.552 504.896C258.546 504.844 257.568 505.255 259.594 503.683L259.945 499.813C264.049 497.584 270.14 500.566 273.471 498.567C273.652 496.963 273.83 495.87 274.164 494.29C276.292 493.032 281.786 493.915 282.003 493.699C287.21 488.523 286.661 489.412 294.425 489.622C293.315 492.966 294.036 492.513 291.584 494.141C287.022 493.966 287.42 492.826 284.025 494.358C283.851 495.895 283.74 497.266 283.648 498.809C279.884 501.112 276.803 497.88 274.117 500.604C273.955 503.368 274.442 503.052 272.967 504.504C272.335 504.569 265.429 505.148 265.644 504.979C261.057 508.563 260.557 509.431 254.516 509.301Z" fill="black"/>
<path d="M199.077 469.631C201.173 472.543 199.128 474.392 201.639 474.491C205.962 474.662 210.729 474.687 215.039 474.729C215.288 477.475 215.771 477.564 214.517 479.584C208.94 481.647 205.038 476.894 202.966 484.076C196.225 483.856 198.448 483.572 192.321 479.256C190.422 477.917 190.878 476.389 190.742 473.758C190.832 472.81 191.112 471.83 191.333 470.89C193.087 469.591 196.663 469.755 199.077 469.631Z" fill="black"/>
<path d="M217.365 523.504L224.957 523.71C224.558 527.078 225.149 526.18 223.194 527.888C217.81 528.182 216.607 527.246 213.527 531.654L210.355 532.395C207.397 533.09 207.713 533.478 205.462 531.972L205.438 530.143C206.801 527.765 205.919 528.502 209.034 527.599L210.354 524.769C212.203 523.243 214.78 523.574 217.365 523.504Z" fill="black"/>
<path d="M198.757 464.705C208.787 465.077 202.701 459.106 214.48 460.908C209.384 465.393 207.129 459.199 205.82 467.368C205.516 469.264 205.739 471.246 206.814 472.707C211.856 473.363 211.097 472.526 215.868 474.475L215.037 474.728C210.728 474.686 205.961 474.661 201.638 474.49C199.127 474.391 201.171 472.542 199.075 469.63C197.768 466.931 197.7 467.101 198.757 464.705Z" fill="#E9D80C"/>
<path d="M606.888 260.48C606.842 263.122 606.697 265.163 607.24 267.764C608.983 269.373 608.861 268.915 611.537 269.211L611.553 269.407C608.823 269.52 608.899 269.045 607.202 270.599L606.567 273.521C602.767 275.421 600.572 273.038 597.751 275.041L597.07 280.005C597.109 274.773 597.162 269.851 597.437 264.622L598.171 267.717C599.701 269.318 599.892 269.783 601.941 270.24C606.705 268.93 606.445 264.378 606.888 260.48Z" fill="#765D5D"/>
<path d="M450.475 431.624C450.491 429.32 450.254 428.411 451.638 426.606C454.536 425.253 460.531 425.896 464.262 425.915L464.132 426.379C457.801 426.808 460.699 430.042 455.545 431.01L454.865 431.838C453.137 432.386 452.326 432.014 450.475 431.624Z" fill="#DD3430"/>
<path d="M596.939 342.36C596.977 345.707 597.505 345.222 595.823 347.395C593.208 348.244 590.103 347.87 587.305 347.751C587.09 345.606 587.029 345.477 587.672 343.468C590.654 341.803 593.192 342.385 596.939 342.36Z" fill="black"/>
<path d="M596.938 342.36C596.96 340.433 596.853 340.134 597.672 338.456C599.988 336.81 604.163 337.423 607.199 337.543C607.046 340.538 607.574 340.334 605.815 342.066C603.162 342.873 599.79 342.493 596.938 342.36Z" fill="black"/>
<path d="M587.307 347.75L586.994 351.143C583.935 353.378 581.19 352.593 576.984 352.435C577.367 350.558 577.428 350.34 578.261 348.623C580.471 347.097 584.478 347.64 587.307 347.75Z" fill="black"/>
<path d="M558.094 362.17V358.803C565.251 351.81 568.325 352.468 578.074 352.4C577.256 355.776 577.89 355.539 575.658 357.227C572.53 357.188 570.894 356.941 568.126 358.385C567.101 359.825 566.879 360.193 566.145 361.793C563.783 362.803 560.778 362.317 558.094 362.17Z" fill="black"/>
<path d="M293.102 489.236C293.807 485.932 293.178 486.264 295.321 484.581C298.589 484.705 299.167 484.701 302.368 483.945C302.965 482.641 303.401 481.892 304.14 480.661C306.608 479.085 310.277 479.69 313.32 479.857C313.203 482.822 313.437 483.205 311.16 484.777C306.185 484.272 303.795 483.498 301.986 488.358C299.73 489.811 295.967 489.313 293.102 489.236Z" fill="black"/>
<path d="M347.447 464.758L347.471 467.831C343.983 471.363 337.683 469.266 332.83 469.834C332.47 466.956 332.089 467.543 333.242 465.484C336.708 464.114 343.295 464.724 347.447 464.758Z" fill="black"/>
<path d="M538.418 372.257C538.265 374.881 538.655 374.328 537.401 376.288C533.341 377.88 527.69 377.134 523.141 376.947C523.385 374.8 523.278 374.464 524.593 372.879C528.638 371.44 533.861 372.135 538.418 372.257Z" fill="black"/>
<path d="M538.42 372.258C538.359 368.959 537.831 369.319 539.445 367.147C541.937 366.142 545.707 366.574 548.506 366.689C548.077 370.315 548.727 370.052 546.609 372.009C543.918 372.573 541.18 372.343 538.42 372.258Z" fill="black"/>
<path d="M313.326 479.856C313.415 476.808 312.879 476.712 314.581 474.83C317.218 473.975 320.356 474.383 323.178 474.525C322.946 477.793 323.488 477.506 321.719 479.586C319.121 480.455 316.112 480.022 313.326 479.856Z" fill="black"/>
<path d="M474.625 401.345C474.64 404.634 475.168 404.125 473.455 406.126C470.893 407.036 467.544 406.59 464.73 406.431C464.593 404.417 464.585 404.149 465.258 402.254C467.56 400.645 471.597 401.238 474.625 401.345Z" fill="black"/>
<path d="M405.885 435.579C405.692 433.511 405.608 433.373 406.466 431.56C408.894 430.067 413.535 430.726 416.601 430.874C416.387 434.17 416.953 433.636 415.064 435.405C411.96 436.299 409.108 435.613 405.885 435.579Z" fill="black"/>
<path d="M483.664 396.24C484.016 394.207 483.97 393.683 485.079 392.01C487.579 390.448 491.441 391.109 494.522 391.304C494.629 392.963 494.514 393.384 494.239 395.039C491.639 397.17 487.25 396.364 483.664 396.24Z" fill="black"/>
<path d="M356.797 460.041C356.55 457.959 356.456 457.822 357.444 456.079C359.975 454.748 364.286 455.312 367.319 455.447L367.227 458.622C364.926 460.722 364.268 460.424 360.733 460.258C359.421 460.194 358.109 460.123 356.797 460.041Z" fill="black"/>
<path d="M425.766 425.935C425.911 422.839 425.406 423.171 427.043 421.188C429.879 420.046 432.992 420.734 436.119 420.699C435.148 424.227 435.828 423.968 433.435 425.802C430.774 426.281 428.457 426.058 425.766 425.935Z" fill="black"/>
<path d="M386.977 445.501C386.843 442.15 386.333 442.7 387.982 440.52C390.607 439.689 393.646 440.074 396.442 440.21C395.922 443.619 396.527 443.482 394.47 445.285C391.802 445.684 389.659 445.561 386.977 445.501Z" fill="black"/>
<path d="M376.211 450.361C376.466 448.382 376.407 447.966 377.353 446.265C379.78 444.661 383.902 445.33 386.983 445.501C386.978 447.373 386.969 447.505 386.421 449.284C383.776 451.101 379.683 450.431 376.211 450.361Z" fill="black"/>
<path d="M454.932 411.167C454.71 409.099 454.603 408.931 455.436 407.105C457.738 405.618 461.852 406.256 464.734 406.43C464.406 409.872 465.017 409.167 462.93 411.001C460.215 411.496 457.684 411.275 454.932 411.167Z" fill="black"/>
<path d="M425.767 425.937C425.789 429.221 426.302 428.614 424.581 430.647C421.959 431.313 419.321 431.008 416.606 430.876C416.4 428.864 416.4 428.608 417.057 426.704C419.374 425.197 422.846 425.787 425.767 425.937Z" fill="black"/>
<path d="M445.07 415.952C445.109 413.872 445.001 413.591 446.011 411.863C448.205 410.492 452.197 411.038 454.927 411.167C454.896 414.391 455.408 413.736 453.642 415.658C450.958 416.481 447.915 416.095 445.07 415.952Z" fill="black"/>
<path d="M367.32 455.447C367.543 452.165 366.972 452.592 368.84 450.847C371.474 450.056 374.968 450.46 377.793 450.61C376.933 453.943 377.592 453.496 375.329 455.31C372.649 455.866 370.058 455.585 367.32 455.447Z" fill="black"/>
<path d="M494.524 391.304C494.417 389.335 494.295 389.083 495.067 387.338C497.384 385.818 501.07 386.462 504.029 386.637C503.891 389.898 504.427 389.257 502.599 391.202C499.946 391.943 497.3 391.523 494.524 391.304Z" fill="black"/>
<path d="M445.075 415.952C445.113 417.849 445.174 418.009 444.494 419.737C442.337 421.355 438.071 420.84 435.211 420.771C435.28 418.714 435.112 418.111 436.213 416.491C438.53 415.191 442.253 415.787 445.075 415.952Z" fill="black"/>
<path d="M504.023 386.637C504.046 383.344 503.526 384.109 505.285 382.355C508.466 381.374 511.249 382.123 514.568 382.034C513.459 385.792 514.3 385.072 511.548 386.678C508.94 386.747 506.616 386.704 504.023 386.637Z" fill="black"/>
<path d="M395.773 440.298C396.131 438.333 396.098 437.999 397.102 436.324C399.257 434.896 403.168 435.45 405.89 435.579C406.033 437.649 406.154 437.865 405.251 439.641C402.949 441.068 398.653 440.454 395.773 440.298Z" fill="black"/>
<path d="M347.446 464.758C347.425 462.757 347.306 462.48 348.213 460.78C350.579 459.402 353.909 459.916 356.797 460.042C356.862 462.96 357.356 462.671 355.767 464.507C353.112 465.293 350.243 464.913 347.446 464.758Z" fill="black"/>
<path d="M474.625 401.345C474.755 398.455 474.258 398.661 475.91 396.822C478.555 395.972 481.706 396.402 484.535 396.561C483.717 400.071 484.42 399.581 482.065 401.226C479.45 401.462 477.248 401.393 474.625 401.345Z" fill="black"/>
<path d="M322.383 474.525C322.773 472.69 322.881 472.405 323.664 470.693C325.859 469.192 330.016 469.732 332.829 469.834L332.428 473.113C329.545 475.435 326.438 474.661 322.383 474.525Z" fill="black"/>
<path d="M547.922 366.729C548.266 364.814 548.235 364.559 549.207 362.918C551.416 361.437 555.308 362.022 558.099 362.171L557.87 365.307C555.163 367.714 551.86 366.894 547.922 366.729Z" fill="black"/>
<path d="M513.375 377.563C516.212 377.267 519.003 376.813 521.809 377.237C524.134 378.767 523.43 378.207 524.195 381.668C518.123 382.076 515.332 383.652 513.375 377.563Z" fill="black"/>
<path d="M93.1271 258.727L95.2375 257.229L97.0704 258.99C102.79 259.186 129.839 258.732 132.138 260.688L133.07 263.453C137.767 264.452 159.496 262.027 161.159 264.985C161.719 265.983 161.776 267.384 161.919 268.507C164.971 270.984 190.223 268.457 195.257 269.575C195.574 269.645 195.984 272.603 196.04 273.134L196.086 273.591C199.173 275.039 210.92 274.313 214.912 274.23L214.841 351.331C214.834 364.499 214.319 383.596 215.341 396.402C210.355 396.302 200.858 395.783 196.397 396.877C195.412 398.417 195.504 399.156 195.306 401.036C192.765 402.953 176.294 400.69 172.171 401.419C166.897 402.352 167.215 400.071 165.539 406.205C172.528 414.641 168.548 416.496 175.477 423.686C175.438 430.18 175.334 437.9 177.641 444.037C177.7 444.195 182.383 456.059 181.718 455.209C188.294 455.217 196.132 458.185 198.752 464.705C197.695 467.102 197.763 466.931 199.071 469.63C196.657 469.754 193.081 469.591 191.327 470.89C191.105 471.83 190.825 472.809 190.736 473.757C190.871 476.388 190.416 477.917 192.315 479.255C198.442 483.572 196.219 483.855 202.96 484.075C209.434 484.898 209.41 485.152 213.831 490.111C217.323 494.027 215.894 498.813 214.854 503.112C213.403 503.854 212.881 503.799 211.293 503.94L210.975 504.748L213.613 504.632C216.268 507.9 213.835 511.358 215.414 515.448L215.817 515.885L216.571 517.08C219.558 517.177 222.146 516.426 223.747 517.613C223.892 520.432 224.075 519.293 222.701 522.044C219.372 523.493 219.449 521.305 217.366 523.504C214.78 523.574 212.204 523.243 210.355 524.77L209.035 527.599C207.315 527.154 204.064 527.519 202.158 527.634C198.841 526.229 196.183 518.928 192.901 518.678C184.512 518.039 175.797 518.996 167.306 518.792C164.613 516.574 167.715 516.774 165.269 514.004C160.467 513.156 147.559 513.689 141.758 513.606L80.5158 513.701L76.4516 509.169L66.98 508.291C62.6612 504.175 61.3177 504.4 55.2709 503.585C49.8197 496.896 48.6621 493.088 39.3395 494.398C39.2974 492.13 39.1215 484.915 39.5291 482.987C41.4499 473.896 44.2806 472.58 45.3343 462.897C51.9087 456.23 52.4348 446.477 55.4254 438.105C57.0449 433.572 63.6316 426.395 63.8556 421.809C62.9962 417.483 67.6804 413.919 68.4756 411.095C69.9942 405.696 75.5532 402.246 76.9196 398.928C76.3897 397.748 75.2642 396.896 74.8673 395.899C73.5613 392.617 74.1669 387.589 73.936 384.053C73.8702 383.053 73.5766 379.02 73.0956 378.536C67.7385 373.155 60.8031 366.603 55.4812 361.506C53.4128 356.089 53.8563 317.07 54.9291 309.5C54.9291 309.5 72.8769 293.219 72.8945 293.166C74.4452 288.498 72.3998 281.782 74.1386 275.842C77.9542 272.376 81.5656 268.927 85.1488 265.215C88.5224 261.719 88.2471 259.649 93.1271 258.727Z" fill="#705292"/>
<path d="M93.1318 258.727L95.2423 257.229L97.0752 258.99C102.795 259.186 129.843 258.732 132.143 260.688L133.075 263.453C137.772 264.452 159.501 262.027 161.163 264.985C161.724 265.983 161.78 267.384 161.924 268.507C164.976 270.984 190.228 268.457 195.262 269.575C195.579 269.645 195.989 272.603 196.045 273.134L196.091 273.591C199.178 275.039 210.924 274.313 214.917 274.23L214.846 351.331C214.839 364.499 214.324 383.596 215.346 396.403C210.359 396.302 200.863 395.783 196.402 396.877C195.417 398.417 195.508 399.156 195.31 401.036C192.77 402.953 176.299 400.69 172.176 401.419C166.902 402.352 167.219 400.071 165.543 406.205L164.959 406.277C156.485 407.255 145.322 405.507 137.905 406.701C135.744 409.64 138.465 410.429 135.22 410.954C127.414 412.216 115.354 409.679 108.046 411.529C107.549 411.654 107.453 413.668 107.388 414.8C105.253 416.384 99.9778 415.501 96.9283 415.799L94.2521 415.702C93.9087 415.35 93.5662 414.998 93.2236 414.646C92.2051 372.759 94.6803 302.286 93.0263 263.35L93.1318 258.727Z" fill="#FEFEFE"/>
<path d="M93.1318 258.727L95.2423 257.229L97.0752 258.99C97.0492 309.818 98.19 365.284 96.9283 415.799L94.2521 415.702C93.9087 415.35 93.5662 414.998 93.2236 414.646C92.2051 372.759 94.6803 302.286 93.0263 263.35L93.1318 258.727Z" fill="black"/>
<path d="M114.002 278.911C119.486 278.955 148.613 278.023 151.432 279.739L151.548 282.312C153.8 285.3 174.306 282.648 181.295 284.053C181.895 285.541 181.876 286.432 182.011 288.005C183.759 289.198 197.373 288.44 200.313 288.367C200.298 312.714 199.999 337.875 200.596 362.146L191.377 362.213L190.852 366.054C187.584 368.724 155.283 365.267 151.77 367.667C151.644 369.653 151.743 369.992 150.775 371.653C144.19 372.745 121.498 372.158 113.93 372.108L114.002 278.911Z" fill="black"/>
<path d="M76.924 398.927C76.3941 397.748 75.2686 396.895 74.8717 395.898C73.5657 392.617 74.1713 387.588 73.9404 384.053C73.8746 383.052 73.581 379.019 73.1 378.535C67.7429 373.154 60.8075 366.602 55.4856 361.505C53.4172 356.088 53.8607 317.07 54.9335 309.5C54.9335 309.5 72.8813 293.219 72.8989 293.165C74.4496 288.498 72.4042 281.781 74.143 275.841C77.9586 272.375 81.57 268.926 85.1532 265.214C88.5268 261.718 88.2515 259.649 93.1315 258.727L93.026 263.349C91.8499 279.21 94.0506 408.194 91.2222 411.141L89.6562 411.378C88.2783 409.676 88.3211 409.248 87.805 407.04C84.6363 405.106 80.4674 401.62 77.3423 401.143L76.924 398.927Z" fill="#FEFEFE"/>
<path d="M68.5408 308.078C70.6688 308.217 71.0305 308.226 72.9796 309.064C74.0814 318.909 73.2419 350.649 73.199 362.126L69.4355 361.469C67.4726 358.299 68.4957 314.929 68.5408 308.078Z" fill="black"/>
<path d="M141.758 513.606C141.778 511.551 141.909 509.568 142.029 507.519C145.213 502.634 146.125 498.167 152.51 498.559C156.672 498.815 156.05 503.412 158.026 504.025C162.759 505.495 171.473 502.75 175.576 505.248L175.82 508.231L176.866 509.012C184.922 509.156 201.887 510.244 209.672 508.045C210.117 507.919 210.739 505.48 210.975 504.748L213.613 504.632C216.268 507.899 213.834 511.358 215.413 515.447L215.817 515.885L216.571 517.08C219.558 517.177 222.146 516.426 223.747 517.613C223.892 520.432 224.075 519.293 222.701 522.044C219.372 523.493 219.449 521.305 217.366 523.504C214.78 523.574 212.203 523.243 210.354 524.769L209.035 527.598C207.315 527.153 204.064 527.518 202.158 527.634C198.84 526.229 196.182 518.927 192.901 518.677C184.512 518.039 175.797 518.995 167.305 518.791C164.613 516.574 167.715 516.773 165.268 514.004C160.467 513.156 147.558 513.689 141.758 513.606Z" fill="#DD3430"/>
<path d="M181.717 455.209C188.293 455.217 196.132 458.185 198.751 464.705C197.695 467.102 197.763 466.931 199.07 469.63C196.656 469.754 193.081 469.591 191.327 470.89C191.105 471.83 190.825 472.809 190.736 473.757C190.748 476.623 191.253 478.894 188.125 479.76C180.781 475.699 178.95 462.242 181.717 455.209Z" fill="#BD8A63"/>
<path d="M141.96 459.939L145.189 460.114C148.14 463.643 146.675 474.495 146.796 479.869C145.469 479.967 144.567 479.843 143.263 479.72C140.627 476.831 141.841 464.34 141.96 459.939Z" fill="black"/>
<path d="M137.54 444.758C139.257 445.332 140.448 445.331 141.057 446.682C142.77 450.485 141.669 455.675 141.959 459.941C138.868 459.916 139.473 460.418 137.798 458.813C136.471 454.99 137.271 448.985 137.54 444.758Z" fill="black"/>
<path d="M146.797 479.869L149.778 479.921C152.809 483.244 151.206 490.177 151.251 494.676C149.458 494.136 147.964 494.111 147.371 492.534C146.001 488.897 146.972 483.837 146.797 479.869Z" fill="black"/>
<path d="M710.245 96.748C714.29 97.2542 717.723 97.7077 721.822 97.8339C727.595 103.551 739.99 110.87 748.309 119.077C748.722 127.348 748.401 128.254 753.516 134.933C753.922 142.12 753.578 142.889 758.081 148.499C758.525 157.636 757.531 162.384 762.945 169.441C763.097 176.827 761.652 186.824 766.645 191.665C767.043 192.05 767.448 192.426 767.869 192.795C768.022 195.737 767.915 202.42 769.398 204.458C771.027 205.649 772.357 206.598 773.726 208.099C778.543 213.382 781.258 206.356 784.332 214.833C793.072 218.388 821.57 229.666 826.754 235.83C827.909 239.896 827.313 249.782 827.183 254.459C824.667 254.599 819.483 254.57 817.586 255.722L816.921 258.518C813.274 260.306 810.529 258.537 808.196 260.257L807.569 262.589C801.597 265.913 791.512 267.686 784.852 269.709C784.095 269.937 783.506 271.555 783.292 272.33C783.185 272.731 783.085 273.134 782.994 273.538C777.557 275.895 758.945 284.216 754.786 285.059C753.891 286.387 753.753 286.664 753.096 288.13C747.636 289.03 744.616 287.46 743.882 293.013C740.41 296.07 735.685 291.859 733.154 298.061C732.16 300.501 726.371 296.201 723.611 302.542C720.721 304.931 718.243 302.811 712.615 308.11C710.895 308.192 710.428 308.28 708.762 307.91C700.87 310.24 699.127 331.895 699.525 339.119C700.48 356.421 699.983 373.675 699.532 390.972C694.593 391.626 694.233 393.255 690.418 398.264C689.852 399.015 689.301 399.78 688.774 400.557C684.01 401.934 666.025 401.554 661.177 400.873C660.252 398.144 657.951 395.82 656.031 393.579C656.161 387.036 657.056 369.209 655.167 363.788C654.556 363.224 651.902 360.58 651.849 360.101C651.008 352.684 651.642 345.345 650.679 337.789C651.115 332.602 650.962 328.313 650.839 323.132L650.556 317.93L650.602 317.277C649.93 312.226 650.166 298.496 648.997 296.233L647.697 295.847C647.414 296.461 647.934 305.657 647.972 307.33L646.94 308.316C645.54 304.11 646.137 289.265 646.068 283.749L646.152 281.141C648.928 276.673 654.38 274.935 659.189 273.9C661.583 273.385 661.109 271.247 661.285 269.152C653.76 268.762 654.273 263.916 649.348 259.343C648.087 258.176 644.523 259.586 641.954 257.654L641.664 255.124C638.758 254.368 638.957 253.969 636.365 254.644C634.025 261.457 634.422 258.261 629.62 259.3C627.181 259.827 626.172 263.772 622.081 265.188C622.341 262.902 622.425 262.421 621.982 260.181C619.756 258.726 619.886 259.261 616.637 259.512C616.583 255.174 615.918 251.279 618.709 248.34C618.235 247.959 617.073 246.556 616.606 246.022C614.266 245.545 613.639 245.539 611.888 243.971C611.842 242.081 611.98 241.7 610.986 240.201L607.706 240.362C606.406 239.017 606.773 238.364 606.597 236.102C603.5 234.142 603.187 236.111 598.996 234.686L597.88 231.265C597.505 225.468 619.015 195.487 621.079 186.87C621.898 183.455 621.829 176.745 621.875 173.074L626.684 167.936C626.371 150.155 635.263 135.531 636.678 119.343C640.547 115.599 645.808 112.115 647.903 107.554L649.746 108.809C650.258 110.531 650.388 110.838 651.245 112.417C655.496 113.255 665.62 112.774 670.414 112.677L670.346 122.527C675.056 122.53 685.746 122.804 689.867 121.956C689.989 120.656 690.119 119.555 690.303 118.262C693.499 116.901 696.145 116.615 699.081 116.033C699.096 116.03 705.374 108.95 705.741 108.554C706.108 108.157 707.324 109.15 709.343 107.685C709.595 104.035 709.893 100.389 710.245 96.748ZM635.913 225.432C640.746 225.597 653.982 222.031 656.307 218.496L656.238 217.648C655.534 209.223 657.24 197.694 654.479 190.304L653.722 189.775L653.187 190.219L654.395 190.573L654.135 190.076C650.618 192.235 650.748 199.354 650.48 203.3C647.865 206.534 636.831 222.339 635.913 225.432Z" fill="#DD3430"/>
<path d="M769.399 204.457C771.028 205.648 772.358 206.597 773.727 208.098C778.544 213.381 781.259 206.355 784.333 214.832C793.073 218.387 821.571 229.665 826.755 235.829C827.91 239.895 827.313 249.781 827.183 254.458C824.668 254.598 819.484 254.569 817.587 255.721L816.922 258.517C813.275 260.305 810.529 258.536 808.197 260.256L807.57 262.588C801.598 265.912 791.513 267.685 784.853 269.708C784.096 269.936 783.507 271.554 783.293 272.329C783.186 272.73 783.086 273.133 782.995 273.537C777.558 275.894 758.946 284.215 754.787 285.058C753.892 286.386 753.754 286.664 753.097 288.129C747.637 289.029 744.617 287.459 743.883 293.012C740.411 296.069 735.686 291.858 733.155 298.06C732.161 300.5 726.372 296.2 723.612 302.541C720.722 304.93 718.244 302.81 712.616 308.109C710.896 308.191 710.429 308.28 708.762 307.909C700.871 310.239 699.128 331.894 699.525 339.118C700.481 356.42 699.984 373.674 699.533 390.971C694.593 391.625 694.234 393.254 690.418 398.263C689.853 399.014 689.302 399.779 688.774 400.556C684.011 401.933 666.026 401.553 661.178 400.872C660.253 398.143 657.952 395.819 656.032 393.578C656.162 387.035 657.057 369.208 655.168 363.787C654.556 363.223 651.903 360.579 651.85 360.1C651.009 352.683 651.643 345.344 650.68 337.788C651.116 332.601 650.963 328.312 650.84 323.131L650.557 317.929L650.603 317.276C649.93 312.225 650.167 298.495 648.997 296.232L647.698 295.846C647.415 296.46 647.935 305.656 647.973 307.329L646.941 308.315C645.541 304.109 646.138 289.264 646.069 283.748L646.153 281.14C648.929 276.672 654.381 274.934 659.19 273.899C661.584 273.384 661.11 271.246 661.285 269.151L669.207 268.875C670.545 263.901 670.675 264.624 675.148 263.711C675.011 261.694 675.026 261.624 675.691 259.735C680.126 257.845 681.434 261.187 685.173 258.251C685.425 256.294 685.494 255.88 686.121 254.021C687.368 253.516 687.995 253.305 689.287 252.931L690.304 249.995L690.327 246.752C693.217 243.116 695.955 241.52 699.801 239.116L700.298 236.047C701.804 234.99 701.254 235.305 703.433 235.317C708.824 243.298 713.511 239.792 721.983 240.307C726.686 240.593 732.122 240.598 736.718 239.766C739.05 239.345 739.211 235.821 741.321 234.979C744.777 234.365 749.021 235.182 752.317 233.708C756.148 232.269 765.224 225.972 768.26 225.199C768.267 220.637 767.839 208.138 769.399 204.457Z" fill="#705292"/>
<path d="M769.4 204.457C771.029 205.648 772.359 206.597 773.728 208.098C778.545 213.381 781.26 206.355 784.334 214.832C793.074 218.387 821.572 229.665 826.756 235.829C827.911 239.895 827.315 249.781 827.185 254.458C824.669 254.598 819.485 254.569 817.588 255.721L816.923 258.517C813.276 260.305 810.531 258.536 808.198 260.256L807.571 262.588C801.599 265.912 791.514 267.685 784.854 269.708C784.097 269.936 783.508 271.554 783.294 272.329C783.187 272.73 783.087 273.133 782.996 273.537C777.559 275.894 758.947 284.215 754.788 285.058C753.893 286.386 753.755 286.664 753.098 288.129C746.208 288.028 746.614 288.882 743.211 283.509C743.463 282.436 743.823 281.27 744.128 280.199C746.361 279.15 753.847 271.203 755.063 269.051L757.946 268.861C760.24 269.074 760.523 269.174 762.725 268.667C763.65 267.392 763.604 267.046 763.818 265.518L763.887 265.044C767.863 262.751 770.815 266.394 773.155 262.217L774.126 259.745L773.262 254.439L768.161 253.681C768.574 244.598 768.307 234.369 768.261 225.199C768.268 220.637 767.84 208.138 769.4 204.457Z" fill="#E9D80C"/>
<path d="M773.258 254.438C776.362 254.344 779.971 253.848 782.502 255.466L783.168 256.677C780.683 260.593 778.098 259.007 774.122 259.744L773.258 254.438Z" fill="black"/>
<path d="M792.977 249.792C792.954 247.374 792.533 246.601 793.68 244.811C798.046 244.094 800.447 245.149 802.994 243.119C805.158 237.223 808.354 241.345 812.514 239.205C812.712 237.912 812.919 236.62 813.133 235.33C815.228 234.205 820.29 234.648 822.959 234.699C822.332 237.869 822.844 238.427 820.787 239.94C818.279 239.909 816.337 239.914 813.813 240.076C811.367 243.076 814.739 243.092 811.604 244.831C809.677 244.796 804.347 244.425 803.024 245.26L803.001 245.882C802.932 247.393 803.062 248.211 802.237 249.443C799.293 250.093 796.02 249.864 792.977 249.792Z" fill="black"/>
<path d="M792.981 249.792C792.904 250.9 792.713 252.147 792.576 253.262C789.647 255.393 786.741 254.627 782.742 254.467L783.522 251.292C786.175 248.944 789.127 249.677 792.981 249.792Z" fill="black"/>
<path d="M669.207 268.875C670.545 263.901 670.675 264.624 675.148 263.711C675.248 266.28 675.691 271.312 674.957 273.502C673.436 274.413 672.763 274.278 670.928 274.369C667.51 277.605 663.396 284.389 660.07 288.051C658.739 289.52 657.47 286.962 655.856 289.859L655.826 293.006C652.545 295.337 652.01 291.938 651.269 296.533C650.397 301.943 652.156 312.403 650.603 317.277C649.93 312.225 650.167 298.495 648.997 296.232L647.698 295.846C647.415 296.46 647.935 305.656 647.973 307.329L646.941 308.315C645.541 304.109 646.138 289.264 646.069 283.748L646.153 281.14C648.929 276.672 654.381 274.935 659.19 273.899C661.584 273.384 661.11 271.246 661.285 269.151L669.207 268.875Z" fill="#DD3430"/>
<path d="M723.724 298.627C723.808 297.05 723.961 296.596 724.359 295.123C725.345 294.694 732.043 289.195 733.733 287.984L734.238 284.524C736.096 283.281 740.699 283.555 743.207 283.51C746.61 288.882 746.205 288.029 753.094 288.129C747.635 289.029 744.614 287.459 743.88 293.012C740.409 296.069 735.683 291.858 733.152 298.06C732.158 300.5 726.37 296.201 723.609 302.541L723.724 298.627Z" fill="#E9D80C"/>
<path d="M708.766 307.91L709.981 304.28C712.902 303.831 714.432 301.967 715.372 299.362C717.253 298.071 721.038 298.602 723.73 298.628L723.615 302.542C720.725 304.931 718.247 302.811 712.619 308.11C710.899 308.192 710.433 308.28 708.766 307.91Z" fill="#DD3430"/>
<path d="M757.945 268.861L758.488 265.494C763.007 260.662 766.555 259.211 773.047 259.294L773.154 262.218C770.814 266.394 767.863 262.751 763.887 265.044L763.818 265.518C763.604 267.046 763.65 267.392 762.724 268.668C760.522 269.174 760.239 269.074 757.945 268.861Z" fill="black"/>
<path d="M768.161 253.682L773.261 254.439L774.125 259.745L773.154 262.218L773.047 259.295C768.359 259.354 765.377 260.034 762.602 255.733C764.536 253.448 764.758 253.994 768.161 253.682Z" fill="#DD3430"/>
<path d="M656.308 218.494C658.411 221.261 659.313 221.623 662.769 222.103C663.526 222.207 664.291 222.294 665.056 222.365L664.368 224.362C661.416 225.54 661.821 224.832 660.766 227.006L661.148 230.771L660.949 233.303C656.125 236.65 650.244 243.169 646.559 247.793C646.054 248.433 646.421 252.18 644.326 254.73L641.665 255.123C638.759 254.366 638.958 253.968 636.366 254.642C634.026 261.455 634.424 258.259 629.622 259.298C627.183 259.825 626.173 263.771 622.082 265.186C622.342 262.901 622.426 262.42 621.983 260.179C619.758 258.725 619.888 259.259 616.638 259.51C616.585 255.173 615.919 251.278 618.71 248.339C621.815 243.31 631.847 228.202 635.915 225.431C640.747 225.595 653.984 222.029 656.308 218.494Z" fill="#705292"/>
<path d="M694.923 171.189C694.991 174.717 695.435 182.211 694.494 185.262C692.774 185.853 692.544 185.797 690.702 185.813C689.134 189.04 691.405 192.87 689.639 195.674C688.018 196.001 687.658 196.006 685.991 196.001C683.82 199.17 686.504 202.972 684.477 205.498C684.432 205.561 676.043 210.517 676.036 210.545C674.873 213.364 677.106 217.456 675.363 220.393C667.28 220.91 669.1 228.794 661.148 230.773L660.766 227.008C661.821 224.833 661.416 225.541 664.367 224.364L665.055 222.366C666.661 220.394 666.829 220.893 669.773 220.277C670.935 218.108 670.469 214.388 670.523 211.513C672.664 208.609 672.404 211.678 675.332 209.314L675.233 206.236C676.663 204.73 677.16 205.196 679.76 205.051C681.602 201.848 679.37 200.477 680.83 195.976C682.214 195.634 683.277 195.416 684.692 195.174C686.496 192.375 684.011 188.996 686.098 185.655C692.59 184.585 688.996 178.542 690.143 172.923C691.979 170.845 691.382 171.467 694.923 171.189Z" fill="black"/>
<path d="M690.301 249.996L689.284 252.931C687.992 253.305 687.365 253.516 686.119 254.022C685.492 255.881 685.423 256.295 685.171 258.252C681.432 261.187 680.124 257.846 675.689 259.736C675.024 261.625 675.009 261.695 675.146 263.711C670.673 264.624 670.543 263.901 669.205 268.876C667.354 267.932 667.958 268.621 667.125 266.958C667.913 263.826 669.656 261.021 672.523 259.645C676.53 257.721 673.235 257.445 675.636 254.328C677.639 254.396 678.22 254.555 680.048 253.867L680.583 250.65C682.517 249.522 687.74 249.956 690.301 249.996Z" fill="black"/>
<path d="M694.925 171.188C695.146 166.741 693.961 161.687 695.353 157.822C697.349 156.009 696.783 156.563 700.262 156.655C700.377 160.785 701.057 167.061 699.597 170.567C697.425 171.904 697.968 171.484 694.925 171.188Z" fill="black"/>
<path d="M700.26 156.656C700.062 153.622 699.343 149.556 700.964 147.192C702.631 146.251 702.929 146.311 704.879 146.076C705.055 149.012 705.728 153.581 704.29 155.915C702.524 156.833 702.325 156.732 700.26 156.656Z" fill="black"/>
<path d="M724.735 210.332C724.62 207.473 724.077 203.648 725.691 201.43C727.097 200.773 727.572 200.562 728.833 199.669C730.37 193.157 727.052 188.903 731.127 185.515L734.155 184.934C734.178 188.346 734.507 197.67 733.589 200.486L730.531 200.77C726.769 205.578 733.306 210.146 724.735 210.332Z" fill="black"/>
<path d="M650.617 167.579L651.183 164.824C651.871 165.519 655.32 167.833 654.953 166.915C656.276 170.217 656.474 184.229 654.815 186.793L652.972 186.876C649.195 182.181 652.536 172.791 650.617 167.579Z" fill="black"/>
<path d="M734.389 186.646C734.374 183.017 733.174 174.576 735.307 171.779C735.865 171.047 737.892 171.231 739.115 171.18C739.13 175.144 740.078 181.095 738.503 184.657C737.861 186.12 736.171 186.16 734.389 186.646Z" fill="black"/>
<path d="M724.736 210.331C724.545 213.581 725.31 215.954 724.384 219.221C722.297 221.192 722.886 220.604 719.437 220.891C719.284 218.03 718.78 213.874 719.766 211.337C721.861 209.689 721.41 210.213 724.736 210.331Z" fill="black"/>
<path d="M739.115 171.181C739.039 167.283 738.366 164.288 740.476 161.426L743.779 161.016C744.016 165.12 744.896 168.281 742.724 171.265C741.057 171.41 740.744 171.486 739.115 171.181Z" fill="black"/>
<path d="M650.617 167.581C648.422 167.476 648.292 167.527 646.503 166.379C645.425 164.053 645.494 165.036 646.151 162.689C648.292 160.741 647.329 161.082 649.776 160.996C651.565 162.704 651.099 161.765 651.183 164.825L650.617 167.581Z" fill="black"/>
<path d="M39.3396 494.397C48.6622 493.088 49.8198 496.896 55.271 503.584C61.3178 504.399 62.6614 504.174 66.9801 508.29L76.4518 509.168L80.5159 513.7L141.758 513.606C147.559 513.688 160.468 513.155 165.269 514.003C167.715 516.773 164.613 516.573 167.306 518.791C175.797 518.995 184.512 518.038 192.902 518.677C196.183 518.927 198.841 526.228 202.158 527.633C204.064 527.518 207.315 527.153 209.035 527.598C205.92 528.502 206.801 527.764 205.438 530.143L205.462 531.972C207.714 533.477 207.398 533.09 210.356 532.394C210.458 537.386 210.394 544.275 210.762 549.108C210.014 563.341 210.352 580.227 210.291 594.657L205.635 599.13C204.637 610.133 205.245 628.824 205.271 640.671L206.138 641.219C210.313 641.163 221.216 640.569 224.556 642.273L224.724 642.634C225.455 644.162 225.506 644.237 226.662 645.436C229.513 646.108 231.794 645.957 234.709 645.932C235.038 652.848 237.274 663.931 226.746 665.295C222.893 665.794 219.711 664.928 215.796 666.231L215.147 669.711C209.056 673.491 196.126 665.287 195.138 674.607C192.378 676.575 176.119 675.692 172.417 675.178C169.931 669.422 167.671 670.294 161.997 670.591C161.666 662.334 161.559 654.07 161.68 645.807C161.267 641.371 161.897 636.528 160.957 632.219L159.863 631.788C157.438 631.538 155.428 631.069 153.206 631.915C149.684 639.686 144.418 634.6 137.663 636.683C137.498 638.56 137.641 639.105 136.452 640.413C109.374 644.087 112.344 632.73 113.094 611.022C113.051 606.334 113.414 596.809 111.571 592.946L109.17 593.421C108.702 594.525 108.377 595.242 107.812 596.324C101.971 597.919 94.6213 600.505 88.9951 602.834C88.5577 604.465 88.3443 605.079 87.6783 606.633C83.6471 608.108 82.0888 606.714 78.8467 609.477C76.3134 611.634 71.7538 615.958 68.7579 617.046L63.4405 617.18C58.9558 615.666 55.2855 610.86 52.0381 607.296C36.3039 605.225 16.9002 585.767 0.737821 581.462C0.688883 575.315 0.550464 569.169 0.323364 563.026C-0.156071 561.267 -0.0803748 561.175 0.405177 559.361C3.85068 557.166 5.71186 558.798 9.62686 557.229C9.74767 554.964 9.38521 555.664 10.6989 554.182C12.0263 553.924 27.5059 547.919 28.9625 547.052L29.5551 544.331C32.226 542.83 34.2768 543.806 38.3096 543.042C39.9758 538.783 39.816 538.932 43.7203 537.511C43.2813 534.963 41.0195 532.125 39.4948 529.876C38.9381 518.346 39.2417 506.014 39.3396 494.397ZM151.637 575.785L151.604 577.736C151.066 584.293 151.112 589.611 151.179 596.207C147.007 600.285 146.336 600.349 146.581 606.121C153.742 607.081 159.025 607.28 166.287 606.952C165.856 595.815 166.715 583.163 165.747 571.936C165.543 569.572 164.928 569.653 163.132 568.412C158.798 575.587 156.868 570.53 152.162 573.98L151.637 575.785Z" fill="#DD3430"/>
<path d="M43.7202 537.512C50.8728 539.283 49.6868 542.712 54.6738 547.526C55.3169 548.147 61.8294 546.555 63.4375 549.12L63.4604 552.225C65.2711 553.91 67.8678 553.101 67.926 553.356C69.9905 562.41 72.6216 555.756 77.78 558.726L78.2074 562.238C81.9603 564.083 84.1273 561.422 87.894 563.301L87.9467 563.931C88.1058 565.681 87.9712 566.324 88.9813 567.617C96.6362 568.944 110.532 566.111 116.35 568.72C117.217 570.254 117.083 570.573 117.047 572.412L117.462 572.502C123.486 572.789 126.399 574.31 128.403 568.308C131.411 567.524 142.754 567.851 146.494 567.873C146.932 571.354 146.607 573.379 148.55 575.865L151.637 575.786L151.604 577.737C151.066 584.293 151.112 589.611 151.179 596.208C147.007 600.286 146.336 600.349 146.581 606.122C153.742 607.082 159.025 607.281 166.287 606.953C166.439 610.615 167.068 617.696 166.084 620.916C164.415 621.568 164.003 621.547 162.196 621.732C160.135 625.634 162.995 630.043 159.863 631.788C157.438 631.539 155.428 631.07 153.206 631.916C149.684 639.686 144.418 634.601 137.663 636.684C137.498 638.561 137.641 639.106 136.452 640.414C109.374 644.088 112.344 632.731 113.094 611.023C113.051 606.334 113.414 596.81 111.571 592.947L109.17 593.422C108.702 594.526 108.377 595.243 107.812 596.325C101.971 597.919 94.6213 600.506 88.995 602.835C88.5577 604.466 88.3443 605.08 87.6783 606.634C83.6471 608.109 82.0888 606.715 78.8466 609.478C76.3134 611.635 71.7538 615.959 68.7579 617.047L63.4405 617.181C58.9558 615.667 55.2855 610.86 52.0381 607.297C36.3039 605.226 16.9002 585.768 0.737821 581.463C0.688883 575.315 0.550464 569.17 0.323364 563.027C-0.156071 561.267 -0.0803748 561.176 0.405177 559.362C3.85068 557.167 5.71186 558.799 9.62686 557.23C9.74767 554.965 9.38521 555.665 10.6989 554.183C12.0263 553.925 27.5059 547.92 28.9625 547.053L29.5551 544.332C32.226 542.831 34.2768 543.806 38.3096 543.042C39.9758 538.783 39.816 538.933 43.7202 537.512Z" fill="#E9D80C"/>
<path d="M146.582 606.121C153.743 607.081 159.026 607.28 166.288 606.952C166.44 610.614 167.069 617.696 166.085 620.915C164.416 621.567 164.004 621.546 162.197 621.731C160.136 625.633 162.996 630.042 159.864 631.788C157.439 631.538 155.429 631.069 153.207 631.915C149.685 639.686 144.419 634.6 137.664 636.683C137.499 638.56 137.642 639.105 136.453 640.413C109.375 644.087 112.345 632.73 113.095 611.022C119.216 613.157 115.042 613.907 118.739 616.52C121.952 616.709 134.511 617.575 136.715 616.141C136.791 614.262 136.72 613.999 137.455 612.313C140.678 610.889 141.825 611.942 145.429 611.475C146.92 609.398 146.447 609.046 146.582 606.121Z" fill="#FEFEFE"/>
<path d="M9.62686 557.23C9.32865 558.956 8.77197 561.321 9.00824 562.981C10.5521 568.901 10.7952 565.487 13.2757 569.367C17.1525 575.433 20.0987 570.739 24.5811 573.142C24.7439 575.62 24.3211 576.264 25.7403 577.722C28.3279 577.849 30.9185 577.923 33.5091 577.942C36.1487 580.975 32.6764 580.712 36.0577 582.689C38.9137 582.603 40.3848 582.513 43.2316 582.924C45.1371 585.248 48.5949 589.723 50.6625 591.607C53.6997 591.772 57.542 591.515 59.3879 593.539L59.8245 596.339C61.3171 597.321 61.3974 597.304 63.2127 597.483C63.7043 603.648 63.4856 610.902 63.4405 617.182C58.9558 615.668 55.2855 610.861 52.0381 607.298C36.3039 605.226 16.9002 585.768 0.737821 581.463C0.688883 575.316 0.550464 569.171 0.323364 563.027C-0.156071 561.268 -0.0803748 561.177 0.405177 559.362C3.85068 557.168 5.71186 558.8 9.62686 557.23Z" fill="#705292"/>
<path d="M9.62686 557.23C9.32865 558.956 8.77197 561.321 9.00824 562.981L0.323364 563.027C-0.156071 561.268 -0.0803748 561.177 0.405177 559.362C3.85068 557.168 5.71186 558.8 9.62686 557.23Z" fill="#DD3430"/>
<path d="M111.578 592.948C117.856 591.175 115.025 593.317 118.967 587.974C119.547 587.186 124.521 588.764 127.096 586.876C127.277 585.051 127.289 584.778 127.902 583.067C130.21 581.893 136.226 582.469 139.86 582.136C141.909 580.997 142.2 580.431 143.197 578.326C145.525 577.081 148.664 577.653 151.611 577.738C151.073 584.294 151.119 589.612 151.186 596.209C147.013 600.287 146.343 600.35 146.588 606.123C146.453 609.048 146.926 609.4 145.435 611.477C141.831 611.944 140.684 610.891 137.461 612.314C136.726 614.001 136.797 614.264 136.721 616.143C134.517 617.577 121.958 616.711 118.745 616.522C115.048 613.909 119.222 613.159 113.101 611.024C113.058 606.335 113.421 596.811 111.578 592.948Z" fill="#DD3430"/>
<path d="M117.049 572.412L117.465 572.503C117.501 575.81 118.011 575.353 116.393 577.608C112.335 578.097 111.453 576.621 107.904 578.436C107.158 579.931 107.003 580.324 106.491 581.919C104.102 583.019 100.34 582.44 97.5938 582.236C97.606 580.7 97.7604 580.129 98.064 578.669C100.353 577.087 103.215 577.852 107.265 577.055C107.723 575.274 107.77 575.193 108.627 573.557C110.925 571.884 114.07 572.365 117.049 572.412Z" fill="black"/>
<path d="M63.2188 597.481L67.9412 596.797C68.4298 603.637 68.5942 610.188 68.7639 617.046L63.4466 617.18C63.4917 610.9 63.7104 603.647 63.2188 597.481Z" fill="black"/>
<path d="M67.935 596.797C67.925 594.823 67.8524 594.673 68.7837 593.006C71.2703 591.515 75.5608 592.037 78.637 592.124C78.4527 595.508 79.0338 594.962 77.1023 596.725C74.4184 597.562 70.81 597.026 67.935 596.797Z" fill="black"/>
<path d="M87.8113 587.208C87.7563 590.453 88.2755 589.939 86.5711 591.991C83.9797 592.679 81.3325 592.305 78.6386 592.124C78.3366 590.105 78.1401 589.799 79.0148 588.077C81.1528 586.602 85.0762 587.112 87.8113 587.208Z" fill="black"/>
<path d="M97.184 582.518L97.6291 585.588C95.3328 588.492 91.4079 587.413 87.8125 587.208L88.2147 584.082C90.735 581.805 93.2981 582.491 97.184 582.518Z" fill="black"/>
<path d="M161.681 645.807C171.138 645.771 168.05 647.483 175.729 650.709C178.176 651.737 188.358 651.266 190.756 649.91L191.014 646.568C194.437 644.598 196.459 646.947 200.025 645.157L200.889 642.093C202.87 640.686 203.32 641.182 206.139 641.219C210.315 641.163 221.217 640.569 224.557 642.274L224.725 642.635C225.456 644.162 225.507 644.237 226.663 645.436C229.514 646.109 231.795 645.958 234.71 645.933C235.039 652.849 237.275 663.932 226.747 665.295C222.894 665.795 219.712 664.928 215.797 666.232L215.148 669.711C209.057 673.492 196.127 665.288 195.139 674.608C192.379 676.575 176.12 675.692 172.418 675.178C169.932 669.422 167.672 670.295 161.998 670.591C161.667 662.334 161.561 654.07 161.681 645.807Z" fill="#FEFEFE"/>
<path d="M146.5 567.873C151.145 567.84 158.893 567.546 163.139 568.413C158.804 575.588 156.875 570.531 152.168 573.981L151.643 575.786L148.557 575.865C146.613 573.38 146.939 571.354 146.5 567.873Z" fill="#DD3430"/>
<path d="M117.469 572.502C117.486 571.44 117.63 570.148 117.717 569.068L119.106 567.945C121.839 567.085 125.476 567.894 128.409 568.308C126.406 574.31 123.493 572.789 117.469 572.502Z" fill="black"/>
<path d="M626.5 49.322L626.317 45.5102C624.91 44.2638 624.726 44.2967 622.853 43.8188C621.156 40.6049 622.05 24.6244 622.593 20.3905C624.597 18.9117 627.28 17.0299 629.429 15.743C634.307 12.8136 633.627 5.33677 639.499 4.89556C642.742 4.65164 648.308 5.86515 650.992 4.56294L651.642 1.07459C654.8 -0.465426 693.308 -0.0762176 698.683 0.556152C701.123 2.22463 699.998 5.2733 701.627 5.10508C712.11 4.0208 709.32 7.95801 715.498 14.1632C715.116 13.7801 718.717 15.0609 719.176 15.2605C719.421 16.5887 719.65 17.715 719.971 19.0287C721.462 19.7352 721.951 19.6901 723.55 19.8377C725.217 23.1165 722.854 25.5344 724.559 28.9179L727.985 29.8149C729.346 32.2021 729.72 69.5028 728.833 72.9123C727.189 73.3214 726.249 73.4614 724.559 73.6793C723.718 75.188 723.886 75.9671 723.855 77.7549C722.311 78.8445 722.028 78.5188 719.833 78.7482C719.65 80.1575 719.451 81.5644 719.237 82.9683C715.192 83.5777 714.443 82.8146 714.313 87.424C713.097 88.785 711.82 88.7331 709.939 89.0427L710.245 96.7474C709.893 100.389 709.595 104.035 709.342 107.684C707.324 109.149 706.108 108.156 705.741 108.553C705.374 108.95 699.096 116.029 699.081 116.033C696.145 116.614 693.499 116.9 690.303 118.262C690.119 119.554 689.989 120.656 689.867 121.955C685.745 122.803 675.056 122.529 670.345 122.526L670.414 112.676C665.62 112.773 655.496 113.254 651.244 112.416C650.388 110.837 650.258 110.53 649.746 108.808L647.903 107.553C639.545 100.854 631.471 91.5393 630.89 80.6216L630.538 78.7734L628.336 78.5089C621.179 73.8575 618.449 56.7552 624.168 53.1774C626.309 51.1816 625.682 52.1902 626.5 49.322Z" fill="black"/>
<path d="M685.379 64.1527C689.096 63.9394 696.75 64.1634 699.617 63.0715C705.383 56.2179 702.898 53.4139 714.36 54.2596C714.505 59.22 714.795 64.5144 714.398 69.4625C714.161 72.5089 713.366 72.892 710.812 74.3808C708.472 78.2713 709.588 84.3694 709.94 89.043L710.246 96.7477C709.894 100.389 709.596 104.035 709.344 107.685C707.325 109.15 706.109 108.156 705.742 108.553C705.375 108.95 699.097 116.029 699.082 116.033C696.146 116.614 693.5 116.9 690.304 118.262C690.12 119.554 689.99 120.656 689.868 121.955C685.747 122.803 675.057 122.53 670.346 122.526L670.415 112.676C665.621 112.773 655.497 113.254 651.246 112.416C650.389 110.837 650.259 110.531 649.747 108.809L647.904 107.554C639.546 100.854 631.472 91.5396 630.891 80.6219C631.097 79.7532 631.418 79.481 631.961 78.6789L645.84 78.4671C645.778 75.218 645.411 71.9606 646.879 69.1016L648.279 68.2138C651.88 69.2851 651.429 72.5479 655.451 75.2181L655.81 78.4931L680.402 78.4938L680.409 71.813C682.956 67.3023 681.403 70.3151 685.165 67.1211L685.379 64.1527Z" fill="#BD8A63"/>
<path d="M645.839 78.4661C645.778 75.2171 645.411 71.9597 646.879 69.1007L648.279 68.2129C651.88 69.2842 651.429 72.547 655.451 75.2171L655.81 78.4921C656.07 80.3908 655.879 86.0859 655.856 88.269C651.215 88.4135 646.168 89.3464 642.85 86.4904C642.865 82.622 641.588 79.6735 637.275 79.2392L631.961 78.678L645.839 78.4661Z" fill="#BD8A63"/>
<path d="M646.117 93.1824C651.997 93.0401 658.688 92.3244 664.216 93.4752C666.204 95.0428 665.608 94.5236 665.99 97.7802C661.915 97.8192 650.353 98.7873 647.035 96.8068C646.293 96.3625 646.278 94.3477 646.117 93.1824Z" fill="black"/>
<path d="M679.625 102.847C682.469 102.675 685.742 102.275 688.434 102.973C690.621 104.673 689.971 104.229 690.697 107.56C687.883 107.873 684.603 108.487 681.957 107.743C679.77 105.968 680.397 106.197 679.625 102.847Z" fill="black"/>
<path d="M669.789 108.383C676.357 107.668 679.584 105.815 680.945 112.746C674.645 113.103 671.464 114.766 669.789 108.383Z" fill="black"/>
<path d="M624.168 53.1777C629.551 54.0556 643.315 53.5792 646.106 54.7208C645.938 57.4927 645.273 61.2533 646.733 63.366C648.652 64.0756 648.759 64.0542 650.839 64.0205C651.214 60.1919 651.298 57.862 651.229 54.015C660.971 53.6602 670.72 53.6251 680.462 53.911C680.339 56.8779 679.774 60.8136 681.203 63.1878C682.779 64.2278 683.398 64.071 685.378 64.1528L685.164 67.1212C681.402 70.3152 682.954 67.3024 680.408 71.8131L680.401 78.4939L655.809 78.4932L655.45 75.2181C651.428 72.548 651.879 69.2852 648.278 68.2139L646.878 69.1017C645.41 71.9607 645.777 75.2181 645.838 78.4671L631.96 78.679C631.417 79.4811 631.096 79.7533 630.89 80.622L630.538 78.7738L628.336 78.5092C621.179 73.8578 618.449 56.7556 624.168 53.1777Z" fill="black"/>
<path d="M656.068 58.9805L675.299 59.1479C675.123 62.7342 675.735 66.3609 675.406 69.8936C675.039 73.8714 672.47 73.5464 669.396 74.0556C667.775 73.7001 667.752 73.6397 666.261 72.846C665.695 71.0429 665.527 69.9028 664.212 68.6014C660.664 69.5939 661.199 71.1125 657.521 73.4814L656.611 72.8429C655.586 68.8185 655.984 63.2503 656.068 58.9805Z" fill="#FEFEFE"/>
<path d="M626.945 59.0315L641.305 59.0078C641.244 62.7753 642.513 69.7642 640.433 72.715C639.806 73.6142 637.872 73.5898 636.48 73.7878C636.113 71.019 636.549 70.9938 634.92 69.0355C632.351 69.1823 630.883 71.594 627.526 73.4712L626.608 72.9345C625.981 70.912 626.708 61.499 626.945 59.0315Z" fill="#FEFEFE"/>
<path d="M631.581 39.2727C636.055 39.3361 666.319 40.5099 670.303 38.2182C672.979 36.6813 671.718 32.195 680.121 34.8751C680.779 36.4633 680.733 36.7294 680.848 38.4713C686.338 42.8543 699.016 50.1178 693.916 57.9945C689.802 60.1577 689.481 57.1816 685.535 59.5918C684.977 61.6702 685.053 62.0112 685.382 64.1522C683.402 64.0704 682.782 64.2272 681.207 63.1872C679.777 60.813 680.343 56.8773 680.465 53.9104C670.724 53.6245 660.974 53.6596 651.233 54.0144C651.302 57.8614 651.217 60.1913 650.843 64.0199C648.763 64.0536 648.656 64.075 646.737 63.3654C645.276 61.2527 645.941 57.4921 646.11 54.7202C643.319 53.5786 629.555 54.055 624.172 53.1771C626.313 51.1814 625.686 52.19 626.504 49.3218C630.021 48.5288 629.777 49.1948 631.459 46.8993C631.688 44.272 631.62 41.9031 631.581 39.2727Z" fill="#BD8A63"/>
<path d="M646.11 54.7195L648.358 53.5312L649.734 53.9748C651.103 56.9286 650.208 60.3917 650.843 64.0193C648.763 64.0529 648.656 64.0743 646.737 63.3647C645.276 61.252 645.942 57.4914 646.11 54.7195Z" fill="#BD8A63"/>
<path d="M661.182 400.872C666.029 401.553 684.014 401.933 688.778 400.556C689.305 399.779 689.856 399.014 690.422 398.263C694.237 393.254 694.597 391.624 699.536 390.971C699.812 395.617 701.318 412.136 699.766 415.528C689.864 417.438 693.84 427.709 682.255 425.992C681.537 425.885 670.128 439.424 669.784 439.474C653.703 441.862 637.409 442.502 641.607 422.474C648.259 416.861 656.043 408.286 660.57 404.573L661.182 400.872Z" fill="#FEFEFE"/>
<path d="M642.766 91.2598L646.766 95.7598H665.266L668.766 91.2598" stroke="black" stroke-width="5"/>
</svg>
